<svg width="376" height="208" viewBox="0 0 376 208" fill="none" xmlns="http://www.w3.org/2000/svg">
<path d="M324.956 139.068C325.263 132.962 320.377 123.803 320.377 114.337C320.377 104.872 324.65 89.9128 321.597 81.9738C318.544 74.0348 317.934 68.2351 317.934 57.5494C317.934 46.8637 313.661 41.064 315.491 32.5149C317.321 23.9659 319.46 18.7762 320.987 25.7987C322.513 32.8213 322.988 39.5375 322.14 46.2537C321.293 52.9698 323.888 54.8027 322.591 62.7391C321.293 70.678 322.543 74.6449 326.803 84.1104C331.063 93.5759 328.316 108.841 328.316 118.304C328.316 127.77 328.622 137.768 328.049 139.065C326.675 139.222 324.956 139.068 324.956 139.068Z" fill="#5D9343"/>
<path d="M330.795 138.536C338.809 133.613 337.093 125.37 335.948 121.707C334.802 118.044 331.368 115.065 330.223 115.409C329.077 115.753 327.569 123.193 328.382 129.262C329.194 135.331 327.361 138.536 327.361 138.536C329.65 139.908 330.795 138.536 330.795 138.536Z" fill="#5D9343"/>
<path d="M358.389 139.137C371.44 130.292 374.419 122.964 375.104 119.3C375.791 115.637 374.416 104.645 373.958 100.295C373.5 95.9443 370.295 98.4619 368.691 103.958C367.087 109.454 370.066 113.804 365.257 123.193C360.448 132.581 356.404 137.39 356.404 137.848C356.404 138.306 358.389 139.137 358.389 139.137Z" fill="#5D9343"/>
<path d="M351.975 137.39C357.012 125.485 349.686 113.805 354.721 103.73C359.759 93.654 359.759 84.953 362.277 76.4812C364.794 68.0094 365.711 63.2007 362.735 57.2465C359.759 51.2922 357.042 40.7611 358.515 36.1815C359.988 31.602 359.594 28.1679 365.514 35.036C371.436 41.904 373.186 46.4836 373.913 58.6212C374.641 70.7561 373.724 71.9017 371.436 79.2279C369.147 86.5542 368.918 92.2793 364.568 100.98C360.217 109.681 359.194 116.762 360.446 123.191C361.699 129.619 354.721 137.388 354.721 137.388C353.12 137.849 351.975 137.39 351.975 137.39Z" fill="#5D9343"/>
<path d="M322.897 106.708C318.547 106.937 316.335 100.296 315.038 95.0286C313.738 89.7617 311.679 83.1228 308.7 82.2064C305.724 81.2899 304.35 75.5675 309.158 74.4219C313.967 73.2763 316.943 80.8264 317.63 87.0124C318.317 93.1984 319.919 99.3818 322.897 101.899C324.727 105.104 322.897 106.708 322.897 106.708Z" fill="#5D9343"/>
<path d="M321.064 42.5933C325.415 43.5097 325.186 36.8682 326.102 34.8088C327.019 32.7468 329.755 35.7253 331.02 40.0757C332.286 44.4262 325.215 51.0545 320.67 47.8682C317.86 44.6526 321.064 42.5933 321.064 42.5933Z" fill="#5D9343"/>
<path d="M343.274 137.592C338.923 125.94 337.549 106.636 340.756 90.9867C343.961 75.3378 345.336 71.9012 344.419 59.308C343.503 46.7148 344.108 38.243 346.553 28.3965C348.999 18.55 348.082 0.231764 350.144 0.00265174C352.206 -0.22646 358.542 14.4287 355.26 29.313C351.977 44.1973 351.061 47.8604 351.977 57.0196C352.894 66.1787 350.533 72.3621 347.134 82.435C343.735 92.5106 344.353 111.287 346.676 119.759C348.999 128.231 347.329 137.542 347.592 138.306C347.853 139.068 343.274 137.592 343.274 137.592Z" fill="#5D9343"/>
<path d="M344.191 108.543C352.433 99.3789 350.832 92.9664 350.832 87.0148C350.832 81.0633 351.061 77.3975 353.35 81.7479C355.641 86.0984 357.911 98.625 355.622 109.159C353.334 119.693 344.191 123.651 344.191 123.651C343.045 114.951 344.191 108.543 344.191 108.543Z" fill="#5D9343"/>
<path d="M345.72 72.2074C342.97 65.4912 337.933 65.033 337.016 58.6205C336.1 52.208 340.25 48.0067 341.06 51.9043C342.28 57.7813 340.373 62.59 345.97 65.1848C347.854 67.4759 345.72 72.2074 345.72 72.2074Z" fill="#5D9343"/>
<path d="M350.145 0.00265174C349.753 0.0452772 349.471 0.740607 349.25 1.90215C349.007 16.7358 353.108 24.4217 349.426 34.1377C345.411 44.7274 346.477 50.7536 347.59 64.2659C348.704 77.7808 345.616 82.5842 343.072 98.7659C340.935 112.355 345.11 129.387 345.781 138.293C346.799 138.53 347.713 138.658 347.593 138.304C347.329 137.539 349.002 128.228 346.676 119.756C344.351 111.284 343.735 92.5079 347.135 82.4323C350.534 72.3567 352.894 66.176 351.978 57.0169C351.061 47.8577 351.978 44.1946 355.26 29.3103C358.54 14.4287 352.204 -0.22646 350.145 0.00265174Z" fill="#79B543"/>
<path d="M326.803 84.1135C322.544 74.6479 321.294 70.6811 322.592 62.7421C323.889 54.8031 321.294 52.9729 322.141 46.2567C322.988 39.5405 322.514 32.8243 320.988 25.8018C320.695 24.4538 320.378 23.5586 320.047 23.0498C319.52 29.4063 318.132 38.6454 319.24 42.5616C320.852 48.2521 321.065 56.1032 320.303 60.8666C319.544 65.63 319.688 70.5293 324.243 80.6368C328.799 90.7444 326.329 94.57 325.082 108.538C323.924 121.531 326.593 129.574 325.621 139.111C326.247 139.14 327.208 139.162 328.048 139.068C328.62 137.771 328.314 127.773 328.314 118.307C328.317 108.844 331.063 93.579 326.803 84.1135Z" fill="#79B543"/>
<path d="M322.94 106.665C323.198 106.404 324.565 104.819 322.897 101.899C319.921 99.3818 318.318 93.1984 317.63 87.0124C316.943 80.8264 313.967 73.2763 309.159 74.4219C307.331 74.8562 306.399 75.9564 306.105 77.1979C309.694 75.413 313.815 73.7346 315.036 84.8785C316.256 96.0224 319.394 100.501 321.413 103.213C322.279 104.374 322.679 105.632 322.94 106.665Z" fill="#79B543"/>
<path d="M331.019 40.0727C329.754 35.7222 327.018 32.7464 326.101 34.8058C330.319 38.1306 329.48 43.6479 325.041 47.375C324.415 47.8998 323.816 48.3314 323.24 48.6937C327.442 48.7869 332.061 43.6586 331.019 40.0727Z" fill="#79B543"/>
<path d="M332.194 131.38C331.192 134.588 330.191 137.188 329.359 139.141C330.313 139.106 330.795 138.536 330.795 138.536C338.809 133.613 337.093 125.37 335.948 121.707C334.802 118.044 331.368 115.065 330.223 115.409C330.145 122.583 334.6 123.67 332.194 131.38Z" fill="#79B543"/>
<path d="M355.623 109.159C357.914 98.6248 355.642 86.0982 353.351 81.7478C352.77 80.6448 352.322 80.0587 351.976 79.8936C353.044 86.8628 355.493 95.2147 354.192 103.236C352.892 111.258 346.296 112.819 345.26 119.682C345.422 120.875 345.883 121.728 346.547 122.301C349.418 120.374 354.078 116.264 355.623 109.159Z" fill="#79B543"/>
<path d="M372.236 98.1689C368.461 105.173 373.49 112.235 371.21 120.14C369.492 126.094 365.884 132.048 361.934 136.585C371.996 128.891 374.481 122.604 375.102 119.3C375.79 115.637 374.415 104.645 373.957 100.295C373.765 98.4593 373.08 97.8492 372.236 98.1689Z" fill="#79B543"/>
<path d="M365.517 35.0359C363.136 32.2732 361.777 31.1783 360.906 31.1543C361.593 43.9659 370.286 49.7923 369.375 67.0289C368.464 84.2656 365.486 93.1957 360.906 103.959C356.326 114.722 355.181 116.195 356.555 121.869C357.531 125.892 356.087 132.811 354.35 137.481C354.472 137.454 354.595 137.428 354.725 137.39C354.725 137.39 361.703 129.622 360.45 123.193C359.198 116.765 360.221 109.684 364.572 100.983C368.922 92.2819 369.151 86.5567 371.44 79.2305C373.731 71.9042 374.645 70.7587 373.917 58.6237C373.19 46.4861 371.44 41.9066 365.517 35.0359Z" fill="#79B543"/>
<path d="M341.061 51.9045C340.811 50.7003 340.241 50.2714 339.602 50.4392C340.185 54.4993 340.297 58.1624 340.923 62.1719C341.381 65.1157 344.44 66.0428 346.747 67.9263C346.771 66.9193 346.581 65.9256 345.974 65.185C340.374 62.5902 342.284 57.7815 341.061 51.9045Z" fill="#79B543"/>
<path d="M358.995 207H325.643L316.025 136.575H368.612L358.995 207Z" fill="#FCD258"/>
<path d="M326.71 148.469L325.963 148.752L328.819 156.308L329.567 156.025L326.71 148.469Z" fill="#1F573B"/>
<path d="M341.14 150.736L340.398 151.034L341.963 154.928L342.704 154.63L341.14 150.736Z" fill="#1F573B"/>
<path d="M354.557 156.736L354.109 157.398L360.208 161.52L360.655 160.858L354.557 156.736Z" fill="#1F573B"/>
<path d="M360.196 145.544L357.146 148.292L357.681 148.886L360.731 146.138L360.196 145.544Z" fill="#1F573B"/>
<path d="M354.291 169.977L347.531 171.402L347.696 172.184L354.456 170.759L354.291 169.977Z" fill="#1F573B"/>
<path d="M336.641 168.261L332.852 173.069L333.479 173.564L337.269 168.756L336.641 168.261Z" fill="#1F573B"/>
<path d="M323.981 173.028L323.463 173.637L329.11 178.445L329.628 177.837L323.981 173.028Z" fill="#1F573B"/>
<path d="M345.008 184.047L340.506 188.168L341.045 188.758L345.548 184.637L345.008 184.047Z" fill="#1F573B"/>
<path d="M329.501 193.325L329.229 194.076L336.805 196.823L337.077 196.072L329.501 193.325Z" fill="#1F573B"/>
<path d="M351.649 198.258L347.264 203.753L347.888 204.251L352.273 198.756L351.649 198.258Z" fill="#1F573B"/>
<path d="M356.816 184.013L356.289 184.614L358.638 186.675L359.165 186.074L356.816 184.013Z" fill="#1F573B"/>
<path d="M330.144 199.896L327.053 203.789L327.679 204.286L330.77 200.393L330.144 199.896Z" fill="#1F573B"/>
<path d="M336.841 138.885L330.242 142.778L330.648 143.467L337.247 139.574L336.841 138.885Z" fill="#1F573B"/>
<path d="M352.868 138.317L352.197 138.752L355.173 143.341L355.844 142.906L352.868 138.317Z" fill="#1F573B"/>
<path d="M325.531 160.805H320.264V161.604H325.531V160.805Z" fill="#1F573B"/>
<path d="M149.964 112.796C127.541 109.344 119.489 106.185 124.377 81.1719C131.276 89.2238 147.949 94.9732 149.964 112.796Z" fill="#79B543"/>
<path d="M163.474 132.347C147.949 119.986 144.625 114.233 123 128.034C139.035 138.958 151.113 140.973 163.474 132.347Z" fill="#79B543"/>
<path d="M176.701 135.224C178.138 112.8 156.001 107.338 151.976 98.999C147.434 120.962 155.14 130.336 176.701 135.224Z" fill="#79B543"/>
<path d="M197.976 138.958C174.974 128.608 173.25 123.433 172.963 105.605C197.976 114.524 198.263 124.874 197.976 138.958Z" fill="#79B543"/>
<path d="M200.095 137.772L198.732 137.653C199.361 130.317 199.735 104.096 178.16 74.6742L179.263 73.8672C201.121 103.672 200.734 130.313 200.095 137.772Z" fill="#1F573B"/>
<path d="M217.292 139.227L216.029 138.698C216.216 138.247 234.91 93.5008 232.658 74.3559L234.016 74.1963C236.31 93.6969 218.072 137.376 217.292 139.227Z" fill="#1F573B"/>
<path d="M201.066 57.0937C211.631 64.211 212.305 76.9317 233.534 72.1854C231.683 57.9555 217.239 54.0754 201.066 57.0937Z" fill="#79B543"/>
<path d="M234.058 70.676C240.309 51.0523 241.389 31 241.389 31C227.159 36.3208 222.559 47.8197 226.439 57.595C230.301 67.3294 231.477 65.6971 234.058 70.676Z" fill="#79B543"/>
<path d="M230.425 98.1965C228.163 80.7385 233.625 73.1197 238.513 66.6545C243.401 60.1847 248.863 57.8867 248.863 57.8867C246.273 65.9386 250.586 79.7354 245.124 88.3618C239.662 96.9837 230.425 98.1965 230.425 98.1965Z" fill="#79B543"/>
<path d="M241.391 101.438C248.002 94.6809 254.759 97.5578 261.949 90.0804C269.135 82.6075 265.255 78.8688 270.001 72.5449C259.364 76.5709 247.865 77.7199 242.977 88.7901C238.085 99.8604 241.391 101.438 241.391 101.438Z" fill="#79B543"/>
<path d="M220.548 133.495C218.25 118.258 220.672 107.935 229.526 98.9942C237.126 91.3207 243.615 87.4543 244.836 86.9893C241.385 103.016 246.419 105.988 239.379 118.54C234.026 128.097 220.548 133.495 220.548 133.495Z" fill="#79B543"/>
<path d="M264.387 122.284C250.732 128.754 241.098 140.111 220.686 134.216C229.9 118.691 251.452 114.091 264.387 122.284Z" fill="#79B543"/>
<path d="M149.965 50.8379C153.416 69.2397 159.74 75.4177 168.654 75.9922C177.568 76.5667 181.051 77.556 181.051 77.556C170.519 56.7332 154.132 53.8608 149.965 50.8379Z" fill="#79B543"/>
<path d="M185.491 36.8955C187.625 43.9398 192.513 54.5632 187.625 64.3432C182.738 74.1277 181.046 75.7052 181.046 75.7052C174.686 65.2094 171.955 56.0131 174.686 48.2484C177.421 40.4883 181.775 40.347 185.491 36.8955Z" fill="#79B543"/>
<path d="M187.233 87.6188C186.331 99.1404 173.97 105.036 167.067 102.879C160.164 100.723 156.43 96.268 155.568 96.1221C164.049 92.9578 165.813 86.7798 174.13 84.4773C182.451 82.1794 187.233 87.6188 187.233 87.6188Z" fill="#79B543"/>
<path d="M203.725 65.501C205.02 72.5453 213.213 80.3054 210.336 90.8011C207.459 101.297 200.994 105.464 200.42 108.337C199.558 99.8561 194.237 95.5429 194.096 86.0548C193.95 76.5712 201.281 73.986 203.725 65.501Z" fill="#79B543"/>
<path d="M199.15 124.309C203.582 117.825 198.439 109.791 204.243 98.2835C210.052 86.7756 219.732 82.8955 219.732 82.8955C222.125 96.8382 220.397 107.908 212.637 114.091C204.872 120.274 203.199 120.588 199.15 124.309Z" fill="#79B543"/>
<path d="M219.733 133.496C202.576 129.042 201.814 114.962 203.032 106.623C214.22 111.214 219.901 117.497 220.69 123.415C221.474 129.329 219.733 133.496 219.733 133.496Z" fill="#79B543"/>
<path d="M197.285 113.507C193.232 98.9944 182.882 94.4669 170.59 96.9837C174.971 112.796 187.232 115.458 197.285 113.507Z" fill="#79B543"/>
<path d="M163.451 133.031C162.735 133.004 145.847 132.347 139.756 129.488L140.335 128.248C146.18 130.988 163.328 131.654 163.501 131.658L163.451 133.031Z" fill="#1F573B"/>
<path d="M174.527 140.494C174.486 140.334 170.227 124.463 149.637 113.397C149.113 113.087 137.345 106.025 131.08 97.3845L132.188 96.582C138.288 104.994 150.193 112.139 150.312 112.207C171.44 123.56 175.685 139.482 175.853 140.156L174.527 140.494Z" fill="#1F573B"/>
<path d="M176.059 135.456C176.009 135.315 170.843 121.473 161.838 114.606L162.668 113.517C171.992 120.629 177.126 134.403 177.34 134.982L176.059 135.456Z" fill="#1F573B"/>
<path d="M197.354 139.25C197.291 139.113 190.921 125.617 181.301 119.225L182.058 118.085C192.002 124.692 198.33 138.101 198.595 138.671L197.354 139.25Z" fill="#1F573B"/>
<path d="M219.208 133.938C218.848 133.509 210.362 123.364 206.701 115.828L207.932 115.23C211.521 122.617 220.17 132.953 220.256 133.058L219.208 133.938Z" fill="#1F573B"/>
<path d="M221.109 133.892L219.996 133.098C221.446 131.06 223.206 127.595 225.071 123.925C228.171 117.82 231.682 110.899 235.115 107.83L236.027 108.851C232.785 111.747 229.334 118.545 226.288 124.545C224.396 128.261 222.618 131.772 221.109 133.892Z" fill="#1F573B"/>
<path d="M220.964 134.84L220.412 133.586C220.968 133.34 234.195 127.568 243.674 126.392L243.843 127.75C234.564 128.904 221.096 134.781 220.964 134.84Z" fill="#1F573B"/>
<path d="M242.064 101.547L240.715 101.333C241.239 98.0138 243.774 89.5105 255.98 82.3203L256.673 83.4966C244.969 90.395 242.557 98.4196 242.064 101.547Z" fill="#1F573B"/>
<path d="M230.985 98.5885L229.863 97.8089C229.95 97.6858 238.613 85.1519 240.715 74.1455L242.06 74.4008C239.899 85.6991 231.35 98.0687 230.985 98.5885Z" fill="#1F573B"/>
<path d="M233.36 72.8508C232.835 72.7186 220.466 69.486 213.043 62.1089L214.005 61.1377C221.168 68.2549 233.574 71.4921 233.697 71.524L233.36 72.8508Z" fill="#1F573B"/>
<path d="M234.738 70.7303L233.375 70.6208C233.562 68.291 233.047 65.0857 232.504 61.6935C231.474 55.2739 230.306 47.997 232.613 41.7598L233.895 42.2339C231.715 48.1293 232.851 55.2192 233.854 61.4747C234.433 65.104 234.939 68.2363 234.738 70.7303Z" fill="#1F573B"/>
<path d="M180.758 78.1853C177.972 76.8904 174.79 74.3554 171.106 71.4191C167.983 68.9297 164.444 66.1074 160.811 63.855L161.531 62.6924C165.233 64.9903 168.803 67.8354 171.958 70.3476C175.423 73.1106 178.693 75.7141 181.332 76.9405L180.758 78.1853Z" fill="#1F573B"/>
<path d="M165.972 96.8243L165.037 95.8258C172.214 89.0824 186.535 87.0215 187.141 86.9395L187.328 88.2936C187.182 88.3164 172.829 90.3818 165.972 96.8243Z" fill="#1F573B"/>
<path d="M201.718 107.115L200.414 106.704C201.641 102.811 201.499 97.9457 201.367 93.2449C201.248 89.0321 201.121 84.6778 201.987 81.0166L203.318 81.3312C202.493 84.8192 202.616 89.0822 202.735 93.2085C202.872 98.0186 203.013 102.998 201.718 107.115Z" fill="#1F573B"/>
<path d="M199.594 124.833L198.709 123.793C200.638 122.152 210.746 108.301 211.092 98.1787L212.46 98.2243C212.091 108.934 201.673 123.059 199.594 124.833Z" fill="#1F573B"/>
<path d="M196.807 113.999C196.743 113.935 190.214 107.652 181.41 103.946L181.939 102.683C190.99 106.49 197.487 112.75 197.756 113.014L196.807 113.999Z" fill="#1F573B"/>
<path d="M221.98 207.385H176.979C170.815 207.385 165.006 204.39 161.5 199.32C147.379 178.921 146.417 157.879 162.252 135.857H235.905C252.606 157.396 253.924 178.912 236.644 200.4C233.078 204.837 227.671 207.385 221.98 207.385Z" fill="#FA6655"/>
<path d="M244.91 187.261H154.752C155.947 190.051 157.383 192.832 159.074 195.6H240.191C242.065 192.819 243.638 190.042 244.91 187.261Z" fill="white"/>
<path d="M246.345 154.241C238.608 153.725 232.74 161.85 225.672 159.087C216.859 155.636 208.898 151.035 201.353 155.495C193.807 159.949 185.613 162.539 176.002 157.077C167.494 152.244 161.531 154.391 151.555 159.133C150.146 166.168 150.401 173.108 152.22 179.965H247.571C249.883 171.389 249.409 162.817 246.345 154.241Z" fill="white"/>
<path d="M43.0802 207.345C65.794 207.345 84.2072 204.842 84.2072 201.754C84.2072 198.666 65.794 196.163 43.0802 196.163C20.3663 196.163 1.95312 198.666 1.95312 201.754C1.95312 204.842 20.3663 207.345 43.0802 207.345Z" fill="#E8E8E8"/>
<path d="M59.2192 201.562H24.9651C24.6372 201.562 24.3711 201.296 24.3711 200.968V171.915C24.3711 171.587 24.6372 171.321 24.9651 171.321H59.2214C59.5492 171.321 59.8154 171.587 59.8154 171.915V200.968C59.8133 201.296 59.5471 201.562 59.2192 201.562Z" fill="#FA6655"/>
<path d="M33.8344 147.188C29.6059 127.653 18.1254 125.236 8.45898 122.417C15.3064 139.536 20.7443 141.952 33.8344 147.188Z" fill="#79B543"/>
<path d="M44.105 147.187C42.2931 134.5 52.5642 122.214 60.2164 120C56.5904 127.652 59.8119 138.528 44.105 147.187Z" fill="#79B543"/>
<path d="M58.4023 145.576C70.083 141.75 81.7636 145.978 86.9992 161.285C76.528 158.868 64.6451 153.028 58.4023 145.576Z" fill="#79B543"/>
<path d="M54.2129 167.73C65.655 165.716 74.7168 169.542 79.7523 180.618C68.0695 180.215 61.7012 178.603 54.2129 167.73Z" fill="#79B543"/>
<path d="M50.5508 176.589C61.9142 176.066 66.6622 179.208 69.0788 191.694C53.3698 189.679 53.7722 186.458 50.5508 176.589Z" fill="#79B543"/>
<path d="M43.8949 175.582C56.5912 190.484 52.1518 199.346 52.056 200.957C40.8821 190.084 43.6841 180.82 43.8949 175.582Z" fill="#79B543"/>
<path d="M33.8339 173.917C29.4031 182.229 31.6196 191.091 10.4727 200.957C16.1107 183.437 28.7984 174.869 33.8339 173.917Z" fill="#79B543"/>
<path d="M24.3683 171.756C19.7374 180.415 9.26402 181.222 0 180.618C11.6828 168.937 14.9042 169.597 24.3683 171.756Z" fill="#79B543"/>
<path d="M31.0154 157.459C18.7301 161.285 13.4945 158.466 4.23047 147.188C17.1183 147.992 24.3682 147.59 31.0154 157.459Z" fill="#79B543"/>
<path d="M41.9089 171.988C40.6207 158.583 42.5434 150.628 43.806 147.079C44.3915 145.433 46.4504 141.884 48.6285 138.126C50.5703 134.779 52.576 131.319 53.9259 128.585L54.4987 128.868C53.1402 131.621 51.1261 135.092 49.18 138.447C47.0146 142.18 44.9706 145.703 44.4064 147.294C43.163 150.792 41.2659 158.645 42.5434 171.926L41.9089 171.988Z" fill="#1F573B"/>
<path d="M41.3364 173.6L40.6997 173.536C40.9361 171.177 39.7714 156.292 33.5734 147.369C33.4882 147.241 25.5209 135.205 17.4492 129.933L17.7984 129.398C25.9829 134.743 34.0227 146.89 34.1015 147.011C40.3931 156.068 41.5748 171.203 41.3364 173.6Z" fill="#1F573B"/>
<path d="M43.7499 171.984L43.1133 171.933C43.9692 161.453 48.4639 148.182 58.3134 145.271L58.3539 145.259H58.3965C60.1701 145.212 63.317 147.051 68.0778 149.828C71.8273 152.015 76.4965 154.733 82.241 157.578L81.9579 158.151C76.1942 155.298 71.5143 152.572 67.7563 150.381C63.2978 147.784 60.0657 145.9 58.4539 145.9C58.4518 145.9 58.4518 145.9 58.4497 145.9C48.943 148.74 44.5888 161.721 43.7499 171.984Z" fill="#1F573B"/>
<path d="M39.7185 172.965L39.0947 172.829C39.1117 172.75 40.6575 164.887 30.8441 157.727C30.4758 157.524 23.8285 153.96 12.1309 151.931L12.2394 151.301C24.3374 153.4 31.1039 157.139 31.1699 157.177L31.2018 157.199C36.512 161.067 38.5453 165.13 39.3182 167.859C40.1635 170.84 39.7377 172.88 39.7185 172.965Z" fill="#1F573B"/>
<path d="M10.611 176.823L10.332 176.248C13.8537 174.543 16.7068 173.851 18.9978 173.295C21.063 172.795 22.694 172.399 24.2014 171.483C29.7117 168.364 33.3441 168.63 35.4222 169.401C37.1298 170.035 38.42 171.27 38.9651 172.788L38.3647 173.003C37.8835 171.662 36.7295 170.565 35.2007 169.999C33.2483 169.275 29.8118 169.039 24.5251 172.032C22.941 172.993 21.1844 173.419 19.1489 173.913C16.7706 174.494 14.073 175.147 10.611 176.823Z" fill="#1F573B"/>
<path d="M18.7274 192.912L18.127 192.692C20.4754 186.288 27.0822 177.188 33.6678 173.643C36.5358 171.697 39.2334 173.638 39.259 173.66L38.88 174.173C38.7842 174.102 36.5059 172.478 34.0127 174.179L33.9829 174.196C27.7316 177.556 21.046 186.586 18.7274 192.912Z" fill="#1F573B"/>
<path d="M49.5558 194.048C46.0917 186.854 44.0817 180.673 43.5814 175.676C42.3443 173.342 40.4919 174.168 40.4132 174.204L40.1406 173.627C40.1662 173.615 42.653 172.478 44.1775 175.437L44.2052 175.493L44.2116 175.554C44.6949 180.488 46.6857 186.615 50.1307 193.774L49.5558 194.048Z" fill="#1F573B"/>
<path d="M64.6371 188.429C62.4334 184.563 59.8912 183.049 56.674 181.131C54.8088 180.019 52.6924 178.759 50.3461 176.836L50.312 176.808L50.2865 176.772C47.7804 173.138 44.0395 174.481 43.8819 174.541L43.6562 173.942C43.6988 173.925 47.9912 172.367 50.7868 176.372C53.0821 178.248 55.1644 179.489 57.0019 180.583C60.1701 182.472 62.9061 184.101 65.1928 188.114L64.6371 188.429Z" fill="#1F573B"/>
<path d="M76.1121 177.933C65.7132 168.364 54.3221 168.051 54.2072 168.049L54.1497 168.043C50.7749 167.351 48.3413 168.439 46.8956 169.474C45.2476 170.653 44.3619 172.137 44.281 172.77L43.6465 172.689C43.7593 171.794 44.8069 170.181 46.523 168.952C48.0688 167.845 50.6642 166.682 54.2498 167.408C54.929 167.432 66.2306 167.968 76.5443 177.46L76.1121 177.933Z" fill="#1F573B"/>
</svg>
