<svg width="147" height="177" viewBox="0 0 147 177" fill="none" xmlns="http://www.w3.org/2000/svg">
<path d="M26.9645 81.796C4.54131 78.3445 -3.51055 75.1848 1.37713 50.1719C8.27552 58.2238 24.9492 63.9732 26.9645 81.796Z" fill="#79B543"/>
<path d="M40.4739 101.347C24.9491 88.9865 21.6253 83.2325 0 97.0339C16.0354 107.958 28.1133 109.973 40.4739 101.347Z" fill="#79B543"/>
<path d="M53.7013 104.224C55.1375 81.8004 33.0015 76.3382 28.9755 67.999C24.4343 89.9617 32.1398 99.3358 53.7013 104.224Z" fill="#79B543"/>
<path d="M74.9759 107.958C51.9736 97.6077 50.2501 92.4328 49.9629 74.6055C74.9758 83.5237 75.2631 93.8735 74.9759 107.958Z" fill="#79B543"/>
<path d="M77.0954 106.772L75.7322 106.653C76.3614 99.3173 76.7353 73.0961 55.1602 43.6742L56.2635 42.8672C78.1213 72.6721 77.7337 99.3127 77.0954 106.772Z" fill="#1F573B"/>
<path d="M94.2923 108.227L93.0293 107.698C93.2162 107.247 111.91 62.5008 109.658 43.3559L111.016 43.1963C113.31 62.6969 95.0719 106.376 94.2923 108.227Z" fill="#1F573B"/>
<path d="M78.0664 26.0937C88.6306 33.211 89.3053 45.9317 110.534 41.1854C108.683 26.9555 94.2386 23.0754 78.0664 26.0937Z" fill="#79B543"/>
<path d="M111.058 39.676C117.309 20.0523 118.389 0 118.389 0C104.159 5.32083 99.559 16.8197 103.439 26.595C107.301 36.3294 108.477 34.6971 111.058 39.676Z" fill="#79B543"/>
<path d="M107.425 67.1965C105.163 49.7385 110.625 42.1197 115.513 35.6545C120.401 29.1847 125.863 26.8867 125.863 26.8867C123.273 34.9386 127.586 48.7354 122.124 57.3618C116.662 65.9837 107.425 67.1965 107.425 67.1965Z" fill="#79B543"/>
<path d="M118.391 70.4379C125.002 63.6809 131.759 66.5578 138.949 59.0804C146.135 51.6075 142.255 47.8688 147.001 41.5449C136.364 45.5709 124.865 46.7199 119.977 57.7901C115.085 68.8604 118.391 70.4379 118.391 70.4379Z" fill="#79B543"/>
<path d="M97.5484 102.495C95.2505 87.2577 97.6715 76.9352 106.526 67.9942C114.126 60.3207 120.615 56.4543 121.836 55.9893C118.385 72.0156 123.419 74.9883 116.379 87.5404C111.026 97.0969 97.5484 102.495 97.5484 102.495Z" fill="#79B543"/>
<path d="M141.387 91.2841C127.732 97.7539 118.098 109.111 97.6855 103.216C106.9 87.6913 128.452 83.0908 141.387 91.2841Z" fill="#79B543"/>
<path d="M26.9648 19.8379C30.4163 38.2397 36.7402 44.4177 45.6539 44.9922C54.5675 45.5667 58.0509 46.556 58.0509 46.556C47.5186 25.7332 31.1321 22.8608 26.9648 19.8379Z" fill="#79B543"/>
<path d="M62.4914 5.89551C64.6252 12.9398 69.513 23.5632 64.6253 33.3432C59.7376 43.1277 58.046 44.7052 58.046 44.7052C51.6856 34.2094 48.9545 25.0131 51.6856 17.2484C54.4213 9.48832 58.7755 9.34698 62.4914 5.89551Z" fill="#79B543"/>
<path d="M64.2334 56.6188C63.3307 68.1404 50.9701 74.0357 44.0672 71.8791C37.1642 69.7225 33.4301 65.268 32.5684 65.1221C41.0489 61.9578 42.8133 55.7798 51.1297 53.4773C59.4506 51.1794 64.2334 56.6188 64.2334 56.6188Z" fill="#79B543"/>
<path d="M80.7253 34.501C82.0202 41.5453 90.2135 49.3054 87.3365 59.8011C84.4595 70.2969 77.9942 74.4642 77.4197 77.3366C76.558 68.8561 71.2372 64.5429 71.0959 55.0548C70.95 45.5712 78.2815 42.986 80.7253 34.501Z" fill="#79B543"/>
<path d="M76.1504 93.3087C80.5821 86.8252 75.4391 78.7915 81.2432 67.2835C87.0519 55.7756 96.7315 51.8955 96.7315 51.8955C99.1252 65.8382 97.3972 76.9084 89.6371 83.091C81.8724 89.2736 80.1991 89.5882 76.1504 93.3087Z" fill="#79B543"/>
<path d="M96.7327 102.496C79.5756 98.0417 78.8142 83.9622 80.0316 75.623C91.2204 80.2144 96.9014 86.4972 97.6902 92.4154C98.4744 98.3289 96.7327 102.496 96.7327 102.496Z" fill="#79B543"/>
<path d="M74.2852 82.507C70.2319 67.9944 59.882 63.4669 47.5898 65.9837C51.9714 81.7957 64.2317 84.4584 74.2852 82.507Z" fill="#79B543"/>
<path d="M40.4511 102.031C39.7353 102.004 22.8472 101.347 16.7559 98.4882L17.3349 97.248C23.1801 99.9883 40.3279 100.654 40.5012 100.658L40.4511 102.031Z" fill="#1F573B"/>
<path d="M51.5267 109.494C51.4857 109.334 47.2272 93.4628 26.6369 82.3971C26.1125 82.0871 14.3447 75.0246 8.08008 66.3845L9.18798 65.582C15.2885 73.9941 27.1931 81.1387 27.3116 81.2071C48.44 92.5601 52.6848 108.482 52.8535 109.156L51.5267 109.494Z" fill="#1F573B"/>
<path d="M53.0587 104.456C53.0085 104.315 47.8427 90.4728 38.8379 83.6063L39.6677 82.5166C48.9917 89.6293 54.1256 103.403 54.3399 103.982L53.0587 104.456Z" fill="#1F573B"/>
<path d="M74.3544 108.25C74.2906 108.113 67.9211 94.6171 58.3008 88.2248L59.0577 87.085C69.0018 93.6915 75.3302 107.101 75.5946 107.671L74.3544 108.25Z" fill="#1F573B"/>
<path d="M96.2077 102.938C95.8475 102.509 87.3624 92.3645 83.7012 84.8278L84.9323 84.2305C88.5206 91.6167 97.1697 101.953 97.2563 102.058L96.2077 102.938Z" fill="#1F573B"/>
<path d="M98.1086 102.892L96.9961 102.098C98.446 100.06 100.206 96.5951 102.071 92.9248C105.171 86.8198 108.682 79.8986 112.115 76.8301L113.027 77.8514C109.785 80.7466 106.334 87.5447 103.288 93.5449C101.396 97.2608 99.6177 100.772 98.1086 102.892Z" fill="#1F573B"/>
<path d="M97.9638 103.84L97.4121 102.586C97.9684 102.34 111.195 96.5679 120.674 95.3916L120.843 96.7503C111.564 97.9038 98.096 103.781 97.9638 103.84Z" fill="#1F573B"/>
<path d="M119.064 70.5473L117.715 70.333C118.239 67.0138 120.774 58.5105 132.98 51.3203L133.673 52.4966C121.969 59.395 119.557 67.4196 119.064 70.5473Z" fill="#1F573B"/>
<path d="M107.985 67.5885L106.863 66.8089C106.95 66.6858 115.613 54.1519 117.715 43.1455L119.06 43.4008C116.899 54.6991 108.35 67.0687 107.985 67.5885Z" fill="#1F573B"/>
<path d="M110.36 41.8508C109.835 41.7186 97.4657 38.486 90.043 31.1089L91.0049 30.1377C98.1678 37.2549 110.574 40.4921 110.697 40.524L110.36 41.8508Z" fill="#1F573B"/>
<path d="M111.738 39.7303L110.375 39.6208C110.562 37.291 110.047 34.0857 109.504 30.6935C108.474 24.2739 107.306 16.997 109.613 10.7598L110.895 11.2339C108.715 17.1293 109.851 24.2192 110.854 30.4747C111.433 34.104 111.939 37.2363 111.738 39.7303Z" fill="#1F573B"/>
<path d="M57.758 47.1853C54.9722 45.8904 51.7897 43.3554 48.1057 40.4191C44.9825 37.9297 41.4444 35.1074 37.8105 32.855L38.531 31.6924C42.2332 33.9903 45.8032 36.8354 48.9583 39.3476C52.4234 42.1106 55.6926 44.7141 58.3325 45.9405L57.758 47.1853Z" fill="#1F573B"/>
<path d="M42.9718 65.8243L42.0371 64.8258C49.2136 58.0824 63.5347 56.0215 64.1411 55.9395L64.328 57.2936C64.1821 57.3164 49.8292 59.3818 42.9718 65.8243Z" fill="#1F573B"/>
<path d="M78.7181 76.1147L77.4141 75.7043C78.6405 71.8106 78.4992 66.9457 78.367 62.2449C78.2485 58.0321 78.1209 53.6778 78.9871 50.0166L80.3185 50.3312C79.4932 53.8192 79.6163 58.0822 79.7348 62.2085C79.8716 67.0186 80.013 71.9975 78.7181 76.1147Z" fill="#1F573B"/>
<path d="M76.5936 93.833L75.709 92.7935C77.6376 91.1521 87.7459 77.3006 88.0924 67.1787L89.4602 67.2243C89.0909 77.9344 78.6727 92.0594 76.5936 93.833Z" fill="#1F573B"/>
<path d="M73.8073 82.9991C73.7435 82.9352 67.2144 76.6524 58.4102 72.9456L58.9391 71.6826C67.9896 75.4897 74.4867 81.7498 74.7557 82.0142L73.8073 82.9991Z" fill="#1F573B"/>
<path d="M98.9804 176.385H53.979C47.8147 176.385 42.006 173.39 38.4998 168.32C24.3793 147.921 23.4173 126.879 39.2521 104.857H112.905C129.606 126.396 130.924 147.912 113.644 169.4C110.078 173.837 104.671 176.385 98.9804 176.385Z" fill="#FA6655"/>
<path d="M121.91 156.261H31.752C32.9465 159.051 34.3827 161.832 36.0743 164.6H117.191C119.065 161.819 120.638 159.042 121.91 156.261Z" fill="white"/>
<path d="M123.345 123.241C115.608 122.725 109.74 130.85 102.672 128.087C93.8591 124.636 85.8983 120.035 78.3525 124.495C70.8067 128.949 62.6135 131.539 53.0023 126.077C44.4944 121.244 38.5306 123.391 28.5546 128.133C27.1458 135.168 27.4011 142.108 29.2203 148.965H124.571C126.883 140.389 126.409 131.817 123.345 123.241Z" fill="white"/>
</svg>
