<svg width="70" height="207" viewBox="0 0 70 207" fill="none" xmlns="http://www.w3.org/2000/svg">
<path d="M18.9564 139.068C19.2628 132.962 14.3769 123.803 14.3769 114.337C14.3769 104.872 18.6501 89.9128 15.597 81.9738C12.544 74.0348 11.9339 68.2351 11.9339 57.5494C11.9339 46.8637 7.66068 41.064 9.49091 32.5149C11.3211 23.9659 13.4604 18.7762 14.9869 25.7987C16.5135 32.8213 16.9877 39.5375 16.1405 46.2537C15.2933 52.9698 17.8881 54.8027 16.5907 62.7391C15.2933 70.678 16.5428 74.6449 20.8026 84.1104C25.0625 93.5759 22.3159 108.841 22.3159 118.304C22.3159 127.77 22.6222 137.768 22.0494 139.065C20.6748 139.222 18.9564 139.068 18.9564 139.068Z" fill="#5D9343"/>
<path d="M24.7953 138.536C32.8089 133.613 31.0933 125.37 29.9477 121.707C28.8021 118.044 25.3681 115.065 24.2226 115.409C23.077 115.753 21.5691 123.193 22.3817 129.262C23.1942 135.331 21.3613 138.536 21.3613 138.536C23.6498 139.908 24.7953 138.536 24.7953 138.536Z" fill="#5D9343"/>
<path d="M52.389 139.137C65.4404 130.292 68.4189 122.964 69.1036 119.3C69.7909 115.637 68.4162 104.645 67.958 100.295C67.4998 95.9443 64.2949 98.4619 62.6911 103.958C61.0873 109.454 64.0658 113.804 59.2571 123.193C54.4484 132.581 50.4043 137.39 50.4043 137.848C50.4043 138.306 52.389 139.137 52.389 139.137Z" fill="#5D9343"/>
<path d="M45.9746 137.39C51.0124 125.485 43.6862 113.805 48.7213 103.73C53.7591 93.654 53.7591 84.953 56.2766 76.4812C58.7942 68.0094 59.7107 63.2007 56.7349 57.2465C53.7591 51.2922 51.0417 40.7611 52.515 36.1815C53.9882 31.602 53.5939 28.1679 59.5135 35.036C65.4358 41.904 67.1861 46.4836 67.9134 58.6212C68.6407 70.7561 67.7243 71.9017 65.4358 79.2279C63.1473 86.5542 62.9182 92.2793 58.5678 100.98C54.2173 109.681 53.1943 116.762 54.4464 123.191C55.6985 129.619 48.7213 137.388 48.7213 137.388C47.1202 137.849 45.9746 137.39 45.9746 137.39Z" fill="#5D9343"/>
<path d="M16.897 106.708C12.5465 106.937 10.3354 100.296 9.03794 95.0286C7.73786 89.7617 5.67852 83.1228 2.70007 82.2064C-0.275721 81.2899 -1.6504 75.5675 3.15829 74.4219C7.96698 73.2763 10.9428 80.8264 11.6301 87.0124C12.3174 93.1984 13.9186 99.3818 16.897 101.899C18.7272 105.104 16.897 106.708 16.897 106.708Z" fill="#5D9343"/>
<path d="M15.0645 42.5933C19.4149 43.5097 19.1858 36.8682 20.1023 34.8088C21.0187 32.7468 23.7547 35.7253 25.0202 40.0757C26.2856 44.4262 19.2151 51.0545 14.6702 47.8682C11.8595 44.6526 15.0645 42.5933 15.0645 42.5933Z" fill="#5D9343"/>
<path d="M37.2738 137.592C32.9233 125.94 31.5486 106.636 34.7562 90.9867C37.9611 75.3378 39.3358 71.9012 38.4193 59.308C37.5029 46.7148 38.1076 38.243 40.5533 28.3965C42.9989 18.55 42.0825 0.231764 44.1445 0.00265174C46.2065 -0.22646 52.5417 14.4287 49.2595 29.313C45.9773 44.1973 45.0609 47.8604 45.9773 57.0196C46.8938 66.1787 44.5334 72.3621 41.134 82.435C37.7346 92.5106 38.3527 111.287 40.6758 119.759C42.9989 128.231 41.3285 137.542 41.5923 138.306C41.8533 139.068 37.2738 137.592 37.2738 137.592Z" fill="#5D9343"/>
<path d="M38.1908 108.543C46.4335 99.3789 44.8324 92.9664 44.8324 87.0148C44.8324 81.0633 45.0615 77.3975 47.3499 81.7479C49.641 86.0984 51.9109 98.625 49.6224 109.159C47.3339 119.693 38.1908 123.651 38.1908 123.651C37.0452 114.951 38.1908 108.543 38.1908 108.543Z" fill="#5D9343"/>
<path d="M39.7197 72.2074C36.9704 65.4912 31.9326 65.033 31.0161 58.6205C30.0997 52.208 34.2503 48.0067 35.0602 51.9043C36.2804 57.7813 34.3729 62.59 39.9701 65.1848C41.8537 67.4759 39.7197 72.2074 39.7197 72.2074Z" fill="#5D9343"/>
<path d="M44.1451 0.00265174C43.7534 0.0452772 43.471 0.740607 43.2499 1.90215C43.0075 16.7358 47.1075 24.4217 43.4257 34.1377C39.411 44.7274 40.4766 50.7536 41.5902 64.2659C42.7038 77.7808 39.6161 82.5842 37.0719 98.7659C34.9353 112.355 39.1099 129.387 39.7813 138.293C40.799 138.53 41.7127 138.658 41.5928 138.304C41.3291 137.539 43.0022 128.228 40.6764 119.756C38.3506 111.284 37.7352 92.5079 41.1346 82.4323C44.534 72.3567 46.8944 66.176 45.9779 57.0169C45.0615 47.8577 45.9779 44.1946 49.2601 29.3103C52.5396 14.4287 46.2044 -0.22646 44.1451 0.00265174Z" fill="#79B543"/>
<path d="M20.8035 84.1135C16.5436 74.6479 15.2941 70.6811 16.5915 62.7421C17.8889 54.8031 15.2941 52.9729 16.1413 46.2567C16.9885 39.5405 16.5143 32.8243 14.9878 25.8018C14.6947 24.4538 14.3777 23.5586 14.0473 23.0498C13.5198 29.4063 12.1318 38.6454 13.2401 42.5616C14.8519 48.2521 15.065 56.1032 14.3031 60.8666C13.5438 65.63 13.6877 70.5293 18.2433 80.6368C22.7989 90.7444 20.3293 94.57 19.0825 108.538C17.9236 121.531 20.593 129.574 19.6206 139.111C20.2467 139.14 21.2084 139.162 22.0476 139.068C22.6204 137.771 22.314 127.773 22.314 118.307C22.3167 108.844 25.0633 93.579 20.8035 84.1135Z" fill="#79B543"/>
<path d="M16.9399 106.665C17.1983 106.404 18.565 104.819 16.8972 101.899C13.9214 99.3818 12.3177 93.1984 11.6303 87.0124C10.943 80.8264 7.9672 73.2763 3.15852 74.4219C1.33095 74.8562 0.398519 75.9564 0.105469 77.1979C3.694 75.413 7.81535 73.7346 9.03551 84.8785C10.2557 96.0224 13.394 100.501 15.4133 103.213C16.2792 104.374 16.6788 105.632 16.9399 106.665Z" fill="#79B543"/>
<path d="M25.0194 40.0727C23.7539 35.7222 21.0179 32.7464 20.1015 34.8058C24.3187 38.1306 23.4795 43.6479 19.0412 47.375C18.4151 47.8998 17.8157 48.3314 17.2402 48.6937C21.4415 48.7869 26.061 43.6586 25.0194 40.0727Z" fill="#79B543"/>
<path d="M26.194 131.38C25.1923 134.588 24.1906 137.188 23.3594 139.141C24.3131 139.106 24.7953 138.536 24.7953 138.536C32.8089 133.613 31.0932 125.37 29.9477 121.707C28.8021 118.044 25.3681 115.065 24.2225 115.409C24.1453 122.583 28.5996 123.67 26.194 131.38Z" fill="#79B543"/>
<path d="M49.6231 109.159C51.9142 98.6248 49.6417 86.0982 47.3506 81.7478C46.7698 80.6448 46.3223 80.0587 45.9759 79.8936C47.0442 86.8628 49.4925 95.2147 48.1925 103.236C46.8924 111.258 40.2961 112.819 39.2598 119.682C39.4223 120.875 39.8832 121.728 40.5465 122.301C43.4184 120.374 48.0779 116.264 49.6231 109.159Z" fill="#79B543"/>
<path d="M66.2356 98.1689C62.4606 105.173 67.4904 112.235 65.21 120.14C63.4916 126.094 59.8844 132.048 55.9336 136.585C65.9959 128.891 68.4815 122.604 69.1022 119.3C69.7895 115.637 68.4149 104.645 67.9566 100.295C67.7648 98.4593 67.0802 97.8492 66.2356 98.1689Z" fill="#79B543"/>
<path d="M59.5175 35.0359C57.1358 32.2732 55.7771 31.1783 54.9059 31.1543C55.5933 43.9659 64.2862 49.7923 63.3751 67.0289C62.464 84.2656 59.4855 93.1957 54.9059 103.959C50.3264 114.722 49.1808 116.195 50.5555 121.869C51.5305 125.892 50.0866 132.811 48.3496 137.481C48.4722 137.454 48.5947 137.428 48.7252 137.39C48.7252 137.39 55.7025 129.622 54.4504 123.193C53.1983 116.765 54.2213 109.684 58.5717 100.983C62.9222 92.2819 63.1513 86.5567 65.4398 79.2305C67.7309 71.9042 68.6447 70.7587 67.9174 58.6237C67.1901 46.4861 65.4398 41.9066 59.5175 35.0359Z" fill="#79B543"/>
<path d="M35.0615 51.9045C34.8111 50.7003 34.2409 50.2714 33.6016 50.4392C34.185 54.4993 34.2969 58.1624 34.9229 62.1719C35.3812 65.1157 38.4396 66.0428 40.7467 67.9263C40.7706 66.9193 40.5815 65.9256 39.9741 65.185C34.3742 62.5902 36.2843 57.7815 35.0615 51.9045Z" fill="#79B543"/>
<path d="M52.9945 207H19.6428L10.0254 136.575H62.6119L52.9945 207Z" fill="#FCD258"/>
<path d="M20.7105 148.469L19.9629 148.752L22.8191 156.308L23.5667 156.025L20.7105 148.469Z" fill="#1F573B"/>
<path d="M35.14 150.736L34.3984 151.034L35.9627 154.928L36.7043 154.63L35.14 150.736Z" fill="#1F573B"/>
<path d="M48.5569 156.736L48.1094 157.398L54.2079 161.52L54.6554 160.858L48.5569 156.736Z" fill="#1F573B"/>
<path d="M54.1964 145.544L51.1465 148.292L51.6815 148.886L54.7314 146.138L54.1964 145.544Z" fill="#1F573B"/>
<path d="M48.2907 169.977L41.5312 171.402L41.6962 172.184L48.4557 170.759L48.2907 169.977Z" fill="#1F573B"/>
<path d="M30.6411 168.261L26.8516 173.069L27.4793 173.564L31.2688 168.756L30.6411 168.261Z" fill="#1F573B"/>
<path d="M17.981 173.028L17.4629 173.637L23.1101 178.445L23.6282 177.837L17.981 173.028Z" fill="#1F573B"/>
<path d="M39.0084 184.047L34.5059 188.168L35.0455 188.758L39.548 184.637L39.0084 184.047Z" fill="#1F573B"/>
<path d="M23.501 193.325L23.2285 194.076L30.8047 196.823L31.0771 196.072L23.501 193.325Z" fill="#1F573B"/>
<path d="M45.6486 198.258L41.2637 203.753L41.8883 204.251L46.2733 198.756L45.6486 198.258Z" fill="#1F573B"/>
<path d="M50.816 184.013L50.2891 184.614L52.6384 186.675L53.1653 186.074L50.816 184.013Z" fill="#1F573B"/>
<path d="M24.1438 199.896L21.0527 203.789L21.6787 204.286L24.7698 200.393L24.1438 199.896Z" fill="#1F573B"/>
<path d="M30.8414 138.885L24.2422 142.778L24.6483 143.467L31.2475 139.574L30.8414 138.885Z" fill="#1F573B"/>
<path d="M46.8678 138.317L46.1973 138.752L49.1732 143.341L49.8437 142.906L46.8678 138.317Z" fill="#1F573B"/>
<path d="M19.5306 160.805H14.2637V161.604H19.5306V160.805Z" fill="#1F573B"/>
</svg>
