<svg width="87" height="88" viewBox="0 0 87 88" fill="none" xmlns="http://www.w3.org/2000/svg">
<path d="M43.0802 87.3455C65.794 87.3455 84.2072 84.8422 84.2072 81.7543C84.2072 78.6664 65.794 76.1631 43.0802 76.1631C20.3663 76.1631 1.95312 78.6664 1.95312 81.7543C1.95312 84.8422 20.3663 87.3455 43.0802 87.3455Z" fill="#E8E8E8"/>
<path d="M59.2192 81.5619H24.9651C24.6372 81.5619 24.3711 81.2958 24.3711 80.9679V51.9153C24.3711 51.5874 24.6372 51.3213 24.9651 51.3213H59.2214C59.5492 51.3213 59.8154 51.5874 59.8154 51.9153V80.9679C59.8133 81.2958 59.5471 81.5619 59.2192 81.5619Z" fill="#FA6655"/>
<path d="M33.8344 27.1878C29.6059 7.65262 18.1254 5.23601 8.45898 2.41699C15.3064 19.5355 20.7443 21.9521 33.8344 27.1878Z" fill="#79B543"/>
<path d="M44.105 27.1874C42.2931 14.4996 52.5642 2.21434 60.2164 0C56.5904 7.65224 59.8119 18.528 44.105 27.1874Z" fill="#79B543"/>
<path d="M58.4023 25.5761C70.083 21.75 81.7636 25.9785 86.9992 41.2851C76.528 38.8685 64.6451 33.0282 58.4023 25.5761Z" fill="#79B543"/>
<path d="M54.2129 47.7298C65.655 45.7156 74.7168 49.5417 79.7523 60.6177C68.0695 60.2153 61.7012 58.6035 54.2129 47.7298Z" fill="#79B543"/>
<path d="M50.5508 56.5894C61.9142 56.0656 66.6622 59.2082 69.0788 71.6937C53.3698 69.6795 53.7722 66.4581 50.5508 56.5894Z" fill="#79B543"/>
<path d="M43.8949 55.582C56.5912 70.4841 52.1518 79.3457 52.056 80.9575C40.8821 70.0838 43.6841 60.8198 43.8949 55.582Z" fill="#79B543"/>
<path d="M33.8339 53.917C29.4031 62.2293 31.6196 71.0909 10.4727 80.9574C16.1107 63.4365 28.7984 54.8687 33.8339 53.917Z" fill="#79B543"/>
<path d="M24.3683 51.7561C19.7374 60.4155 9.26402 61.2224 0 60.6177C11.6828 48.9371 14.9042 49.5972 24.3683 51.7561Z" fill="#79B543"/>
<path d="M31.0154 37.4586C18.7301 41.2847 13.4945 38.4657 4.23047 27.1875C17.1183 27.9923 24.3682 27.5899 31.0154 37.4586Z" fill="#79B543"/>
<path d="M41.9089 51.9881C40.6207 38.5828 42.5434 30.6283 43.806 27.0789C44.3915 25.4331 46.4504 21.8838 48.6285 18.1258C50.5703 14.7787 52.576 11.3188 53.9259 8.58496L54.4987 8.86814C53.1402 11.6212 51.1261 15.0917 49.18 18.4473C47.0146 22.1797 44.9706 25.7035 44.4064 27.294C43.163 30.7922 41.2659 38.6446 42.5434 51.9263L41.9089 51.9881Z" fill="#1F573B"/>
<path d="M41.3364 53.6L40.6997 53.5361C40.9361 51.177 39.7714 36.292 33.5734 27.3686C33.4882 27.2409 25.5209 15.2047 17.4492 9.93285L17.7984 9.39844C25.9829 14.7427 34.0227 26.8896 34.1015 27.0109C40.3931 36.0684 41.5748 51.2026 41.3364 53.6Z" fill="#1F573B"/>
<path d="M43.7499 51.984L43.1133 51.9329C43.9692 41.4532 48.4639 28.182 58.3134 25.2715L58.3539 25.2587H58.3965C60.1701 25.2118 63.317 27.0514 68.0778 29.8279C71.8273 32.0145 76.4965 34.7335 82.241 37.5781L81.9579 38.1508C76.1942 35.2977 71.5143 32.5724 67.7563 30.3815C63.2978 27.7839 60.0657 25.8996 58.4539 25.8996C58.4518 25.8996 58.4518 25.8996 58.4497 25.8996C48.943 28.7399 44.5888 41.7214 43.7499 51.984Z" fill="#1F573B"/>
<path d="M39.7185 52.9651L39.0947 52.8288C39.1117 52.75 40.6575 44.887 30.8441 37.7266C30.4758 37.5243 23.8285 33.9601 12.1309 31.931L12.2394 31.3008C24.3374 33.4001 31.1039 37.139 31.1699 37.1773L31.2018 37.1986C36.512 41.0673 38.5453 45.1297 39.3182 47.8593C40.1635 50.8402 39.7377 52.8799 39.7185 52.9651Z" fill="#1F573B"/>
<path d="M10.611 56.8231L10.332 56.2482C13.8537 54.5428 16.7068 53.8508 18.9978 53.2951C21.063 52.7947 22.694 52.3987 24.2014 51.4831C29.7117 48.3639 33.3441 48.6301 35.4222 49.4008C37.1298 50.0353 38.42 51.2702 38.9651 52.7883L38.3647 53.0034C37.8835 51.662 36.7295 50.5655 35.2007 49.9991C33.2483 49.2752 29.8118 49.0389 24.5251 52.0325C22.941 52.9927 21.1844 53.4186 19.1489 53.9125C16.7706 54.4938 14.073 55.1474 10.611 56.8231Z" fill="#1F573B"/>
<path d="M18.7274 72.9116L18.127 72.6923C20.4754 66.2877 27.0822 57.1876 33.6678 53.6426C36.5358 51.6965 39.2334 53.6383 39.259 53.6596L38.88 54.1727C38.7842 54.1025 36.5059 52.4779 34.0127 54.1791L33.9829 54.1962C27.7316 57.556 21.046 66.5858 18.7274 72.9116Z" fill="#1F573B"/>
<path d="M49.5558 74.0483C46.0917 66.8539 44.0817 60.6729 43.5814 55.6757C42.3443 53.3422 40.4919 54.1683 40.4132 54.2045L40.1406 53.6275C40.1662 53.6147 42.653 52.4777 44.1775 55.4373L44.2052 55.4926L44.2116 55.5544C44.6949 60.4877 46.6857 66.6154 50.1307 73.7737L49.5558 74.0483Z" fill="#1F573B"/>
<path d="M64.6371 68.4293C62.4334 64.5627 59.8912 63.0489 56.674 61.1305C54.8088 60.0191 52.6924 58.7586 50.3461 56.836L50.312 56.8083L50.2865 56.7721C47.7804 53.1376 44.0395 54.4811 43.8819 54.5407L43.6562 53.9424C43.6988 53.9254 47.9912 52.3669 50.7868 56.3718C53.0821 58.2476 55.1644 59.4889 57.0019 60.5833C60.1701 62.4719 62.9061 64.1007 65.1928 68.1142L64.6371 68.4293Z" fill="#1F573B"/>
<path d="M76.1121 57.9328C65.7132 48.3643 54.3221 48.0513 54.2072 48.0492L54.1497 48.0428C50.7749 47.3509 48.3413 48.4389 46.8956 49.4736C45.2476 50.6532 44.3619 52.1372 44.281 52.7696L43.6465 52.6887C43.7593 51.7944 44.8069 50.1805 46.523 48.952C48.0688 47.8448 50.6642 46.6823 54.2498 47.4083C54.929 47.4318 66.2306 47.9683 76.5443 57.4601L76.1121 57.9328Z" fill="#1F573B"/>
</svg>
