<svg width="47" height="47" viewBox="0 0 47 47" fill="none" xmlns="http://www.w3.org/2000/svg">
<path d="M42.5938 7.34375H4.40625C4.01671 7.34375 3.64313 7.49849 3.36769 7.77394C3.09224 8.04938 2.9375 8.42296 2.9375 8.8125V38.1875C2.9375 38.577 3.09224 38.9506 3.36769 39.2261C3.64313 39.5015 4.01671 39.6562 4.40625 39.6562H42.5938C42.9833 39.6562 43.3569 39.5015 43.6323 39.2261C43.9078 38.9506 44.0625 38.577 44.0625 38.1875V8.8125C44.0625 8.42296 43.9078 8.04938 43.6323 7.77394C43.3569 7.49849 42.9833 7.34375 42.5938 7.34375ZM24.4014 26.1281C24.1437 26.3285 23.8265 26.4373 23.5 26.4373C23.1735 26.4373 22.8563 26.3285 22.5986 26.1281L8.22041 14.9454L10.0233 12.6267L23.5 23.108L36.9767 12.6267L38.7796 14.9454L24.4014 26.1281Z" fill="#717171"/>
</svg>
