<svg width="50" height="50" viewBox="0 0 50 50" fill="none" xmlns="http://www.w3.org/2000/svg">
<path d="M24.9994 4.16699C30.6598 4.16699 31.366 4.18783 33.5869 4.29199C35.8056 4.39616 37.316 4.74408 38.6452 5.26074C40.0202 5.78991 41.1785 6.50658 42.3369 7.66283C43.3962 8.70428 44.2159 9.96405 44.7389 11.3545C45.2535 12.6816 45.6035 14.1941 45.7077 16.4128C45.8056 18.6337 45.8327 19.3399 45.8327 25.0003C45.8327 30.6607 45.8119 31.367 45.7077 33.5878C45.6035 35.8066 45.2535 37.317 44.7389 38.6462C44.2174 40.0374 43.3975 41.2974 42.3369 42.3378C41.2951 43.3968 40.0354 44.2165 38.6452 44.7399C37.3181 45.2545 35.8056 45.6045 33.5869 45.7087C31.366 45.8066 30.6598 45.8337 24.9994 45.8337C19.3389 45.8337 18.6327 45.8128 16.4118 45.7087C14.1931 45.6045 12.6827 45.2545 11.3535 44.7399C9.96253 44.218 8.70253 43.3981 7.66185 42.3378C6.60228 41.2965 5.78254 40.0367 5.25977 38.6462C4.7431 37.3191 4.39518 35.8066 4.29102 33.5878C4.1931 31.367 4.16602 30.6607 4.16602 25.0003C4.16602 19.3399 4.18685 18.6337 4.29102 16.4128C4.39518 14.192 4.7431 12.6837 5.25977 11.3545C5.78109 9.9632 6.60102 8.70308 7.66185 7.66283C8.70283 6.60289 9.96274 5.7831 11.3535 5.26074C12.6827 4.74408 14.191 4.39616 16.4118 4.29199C18.6327 4.19408 19.3389 4.16699 24.9994 4.16699ZM24.9994 14.5837C22.2367 14.5837 19.5872 15.6811 17.6337 17.6346C15.6802 19.5881 14.5827 22.2377 14.5827 25.0003C14.5827 27.763 15.6802 30.4125 17.6337 32.366C19.5872 34.3195 22.2367 35.417 24.9994 35.417C27.762 35.417 30.4115 34.3195 32.365 32.366C34.3186 30.4125 35.416 27.763 35.416 25.0003C35.416 22.2377 34.3186 19.5881 32.365 17.6346C30.4115 15.6811 27.762 14.5837 24.9994 14.5837V14.5837ZM38.541 14.0628C38.541 13.3722 38.2667 12.7098 37.7783 12.2214C37.2899 11.733 36.6275 11.4587 35.9369 11.4587C35.2462 11.4587 34.5838 11.733 34.0954 12.2214C33.607 12.7098 33.3327 13.3722 33.3327 14.0628C33.3327 14.7535 33.607 15.4159 34.0954 15.9043C34.5838 16.3926 35.2462 16.667 35.9369 16.667C36.6275 16.667 37.2899 16.3926 37.7783 15.9043C38.2667 15.4159 38.541 14.7535 38.541 14.0628ZM24.9994 18.7503C26.657 18.7503 28.2467 19.4088 29.4188 20.5809C30.5909 21.753 31.2494 23.3427 31.2494 25.0003C31.2494 26.6579 30.5909 28.2476 29.4188 29.4197C28.2467 30.5918 26.657 31.2503 24.9994 31.2503C23.3417 31.2503 21.752 30.5918 20.5799 29.4197C19.4078 28.2476 18.7494 26.6579 18.7494 25.0003C18.7494 23.3427 19.4078 21.753 20.5799 20.5809C21.752 19.4088 23.3417 18.7503 24.9994 18.7503V18.7503Z" fill="#3A3A3A"/>
</svg>
