<svg width="593" height="200" viewBox="0 0 593 200" fill="none" xmlns="http://www.w3.org/2000/svg">
<g clip-path="url(#clip0)">
<g filter="url(#filter0_d)">
<path d="M321.406 169.631C315.864 169.631 311.061 168.479 306.997 166.175C302.933 163.871 299.792 160.829 297.575 157.051C295.451 153.18 294.389 148.986 294.389 144.47C294.389 140.23 295.312 136.083 297.16 132.028C299.007 127.972 301.547 124.286 304.78 120.968C308.105 117.558 311.939 114.793 316.28 112.673C320.621 110.461 325.286 109.124 330.273 108.664C326.671 105.714 323.992 102.304 322.237 98.4331C320.575 94.5622 319.744 90.6912 319.744 86.8202C319.744 81.9354 320.944 77.3271 323.346 72.9953C325.84 68.5714 329.257 65.023 333.599 62.3502C337.94 59.5852 342.835 58.2027 348.285 58.2027C353.458 58.2027 357.383 59.493 360.062 62.0737C362.741 64.6543 364.08 68.341 364.08 73.1336C364.08 76.5437 363.48 79.8617 362.279 83.0875C361.078 86.3133 359.6 88.94 357.845 90.9677C356.183 92.9953 354.566 94.0092 352.996 94.0092C351.98 94.0092 351.01 93.5944 350.086 92.7649C349.163 91.8433 348.424 90.7833 347.87 89.5852C351.102 86.728 353.827 83.7327 356.044 80.599C358.353 77.3732 359.508 73.9631 359.508 70.3686C359.508 67.5115 358.677 65.2995 357.014 63.7327C355.351 62.1658 352.904 61.3824 349.671 61.3824C345.422 61.3824 341.819 62.6728 338.864 65.2534C335.908 67.7419 333.645 71.1059 332.075 75.3456C330.597 79.493 329.858 84.1013 329.858 89.1704C329.858 92.4884 330.366 96.0829 331.382 99.9539C332.398 103.825 334.569 107.189 337.894 110.046C331.705 111.06 326.302 113.41 321.683 117.097C317.157 120.783 313.601 125.115 311.015 130.092C308.521 135.069 307.274 140 307.274 144.885C307.274 147.926 307.828 151.014 308.937 154.147C310.137 157.189 312.031 159.723 314.617 161.751C317.203 163.871 320.667 164.931 325.009 164.931C329.904 164.931 334.753 163.548 339.556 160.783C344.452 158.018 348.932 154.378 352.996 149.862C357.06 145.346 360.293 140.461 362.695 135.207L364.634 136.59C361.401 142.857 357.614 148.479 353.273 153.456C348.932 158.433 344.082 162.35 338.725 165.207C333.368 168.157 327.595 169.631 321.406 169.631ZM366.44 164.101C363.577 164.101 361.175 163.134 359.235 161.198C357.203 159.355 356.187 156.498 356.187 152.627C356.187 149.309 356.926 145.76 358.404 141.982C359.882 138.111 361.914 134.332 364.5 130.645C367.087 126.866 369.996 123.456 373.229 120.415C376.554 117.281 380.018 114.793 383.62 112.949C387.315 111.106 390.964 110.184 394.566 110.184C398.168 110.184 401.17 111.152 403.572 113.087C405.973 114.931 407.174 117.419 407.174 120.553C407.174 122.857 406.528 124.424 405.234 125.253C404.034 126.083 402.417 126.498 400.385 126.498C400.847 124.839 401.078 123.226 401.078 121.659C401.078 119.539 400.57 117.742 399.554 116.267C398.538 114.7 396.783 113.917 394.289 113.917C391.703 113.917 389.07 114.839 386.391 116.682C383.713 118.433 381.126 120.829 378.633 123.871C376.139 126.82 373.922 130.046 371.982 133.548C370.042 137.051 368.518 140.507 367.41 143.917C366.301 147.327 365.747 150.369 365.747 153.041C365.747 156.636 366.994 158.433 369.488 158.433C371.613 158.433 373.922 157.465 376.416 155.53C378.91 153.502 381.45 150.968 384.036 147.926C386.715 144.793 389.255 141.567 391.656 138.249C394.058 134.931 396.182 131.889 398.03 129.124C398.399 128.571 398.63 128.295 398.723 128.295C399.554 128.387 400.662 128.756 402.048 129.401C403.433 129.954 404.126 130.737 404.126 131.751C404.126 132.581 403.71 133.733 402.879 135.207C402.048 136.59 401.124 138.203 400.108 140.046C399.092 141.889 398.168 143.779 397.337 145.714C396.506 147.558 396.09 149.309 396.09 150.968C396.09 152.35 396.459 153.733 397.198 155.115C397.937 156.405 399.138 157.051 400.801 157.051C403.295 157.051 406.574 155.253 410.638 151.659C414.702 147.972 418.812 142.488 422.969 135.207L424.355 136.59C422.415 141.567 419.921 145.945 416.873 149.723C413.825 153.502 410.546 156.452 407.036 158.571C403.618 160.691 400.247 161.751 396.921 161.751C393.504 161.751 390.964 160.737 389.301 158.71C387.731 156.682 386.946 154.47 386.946 152.074C386.946 150.876 387.084 149.539 387.361 148.064C383.389 153.41 379.741 157.419 376.416 160.092C373.183 162.765 369.858 164.101 366.44 164.101ZM434.683 164.654C430.342 164.654 426.878 163.687 424.292 161.751C421.798 159.908 420.043 157.604 419.027 154.839C417.918 152.074 417.364 149.309 417.364 146.544C417.364 143.779 417.734 141.659 418.473 140.184C419.211 138.71 420.089 137.604 421.105 136.866C422.213 136.129 423.229 135.576 424.153 135.207C425.169 134.839 425.862 134.47 426.231 134.101C429.002 131.06 431.543 127.88 433.852 124.562C436.161 121.244 438.193 117.742 439.948 114.055V112.396C439.948 108.986 440.502 106.59 441.611 105.207C442.811 103.733 444.058 102.995 445.352 102.995C446.829 102.995 447.568 103.594 447.568 104.793C447.568 105.253 447.43 105.991 447.153 107.005C446.876 108.018 446.737 109.309 446.737 110.876C446.737 113.917 447.337 117.235 448.538 120.829C449.739 124.332 450.94 128.064 452.141 132.028C453.341 135.899 453.942 139.954 453.942 144.193C453.942 146.59 453.665 148.848 453.11 150.968C456.343 150.415 459.391 148.986 462.255 146.682C465.118 144.286 467.889 140.507 470.568 135.346L471.815 136.728C470.06 141.797 467.427 145.668 463.917 148.341C460.407 150.922 456.574 152.535 452.418 153.18C450.94 157.143 448.584 160.046 445.352 161.889C442.211 163.733 438.655 164.654 434.683 164.654ZM444.382 150.829C444.566 149.908 444.705 148.94 444.797 147.926C444.89 146.912 444.936 145.714 444.936 144.332C444.936 140 444.382 135.714 443.273 131.475C442.257 127.143 441.38 123.088 440.641 119.309C438.516 122.811 436.253 126.175 433.852 129.401C431.543 132.535 429.326 135.161 427.201 137.281C428.587 140.23 430.711 142.995 433.575 145.576C436.53 148.157 440.133 149.908 444.382 150.829ZM434.96 159.816C436.069 159.816 437.546 159.447 439.394 158.71C441.241 157.972 442.673 156.083 443.689 153.041C439.809 152.304 436.346 150.783 433.298 148.479C430.342 146.175 428.125 143.871 426.647 141.567C424.615 141.659 423.599 143.272 423.599 146.405C423.599 149.723 424.569 152.811 426.509 155.668C428.541 158.433 431.358 159.816 434.96 159.816ZM494.499 97.8801C493.022 97.8801 491.682 97.5115 490.481 96.7741C489.373 96.0368 488.819 94.8847 488.819 93.3179C488.819 91.3824 489.927 89.7234 492.144 88.341C494.453 86.8663 496.716 86.129 498.933 86.129C500.319 86.129 501.427 86.4516 502.258 87.0967C503.09 87.7419 503.505 88.8479 503.505 90.4147C503.505 92.1658 502.535 93.8709 500.596 95.5299C498.748 97.0967 496.716 97.8801 494.499 97.8801ZM477.873 161.198C474.271 161.198 471.592 160.046 469.837 157.742C468.082 155.53 467.205 152.811 467.205 149.585C467.205 147.465 467.574 144.793 468.313 141.567C469.144 138.341 470.207 134.977 471.5 131.475C472.793 127.88 474.271 124.516 475.933 121.382C477.688 118.249 479.536 115.714 481.476 113.779C483.415 111.751 485.309 110.737 487.156 110.737C487.987 110.737 488.68 111.014 489.234 111.567C489.881 112.028 490.204 112.765 490.204 113.779C490.204 114.885 489.465 116.682 487.987 119.17C486.602 121.659 484.939 124.516 483 127.742C481.06 130.968 479.351 134.378 477.873 137.972C476.488 141.475 475.795 144.839 475.795 148.064C475.795 151.382 476.349 153.594 477.458 154.7C478.566 155.806 480.275 156.359 482.584 156.359C485.724 156.359 489.05 154.793 492.56 151.659C496.162 148.525 499.949 143.041 503.921 135.207L505.168 136.59C502.489 144.516 498.61 150.599 493.529 154.839C488.542 159.078 483.323 161.198 477.873 161.198ZM512.817 161.751C508.845 161.751 505.982 160.369 504.227 157.604C502.564 154.931 501.733 151.567 501.733 147.511C501.733 143.088 502.564 137.834 504.227 131.751C505.889 125.668 508.06 119.263 510.739 112.535C513.51 105.806 516.512 99.2626 519.744 92.9032C522.977 86.4516 526.21 80.599 529.443 75.3456C532.676 70.0921 535.632 65.8986 538.31 62.7649C541.081 59.6313 543.252 58.0645 544.822 58.0645C545.838 58.0645 546.67 58.6635 547.316 59.8617C547.963 60.9677 548.471 62.3502 548.84 64.0092C549.21 65.576 549.394 67.0045 549.394 68.2949C549.394 70.7833 548.748 74.0552 547.455 78.1105C546.254 82.0737 544.499 86.5437 542.19 91.5207C539.973 96.4055 537.294 101.382 534.154 106.452C531.106 111.429 527.734 116.221 524.039 120.829C520.437 125.438 516.604 129.401 512.54 132.719C511.986 135.207 511.524 137.65 511.154 140.046C510.877 142.35 510.739 144.562 510.739 146.682C510.739 153.779 512.771 157.327 516.835 157.327C519.329 157.327 521.776 156.221 524.178 154.009C526.672 151.797 528.981 149.032 531.106 145.714C533.322 142.304 535.216 138.802 536.786 135.207L538.864 136.313C535.17 144.147 531.152 150.369 526.81 154.977C522.469 159.493 517.805 161.751 512.817 161.751ZM513.787 128.018C517.02 124.793 520.16 121.106 523.208 116.958C526.256 112.719 529.073 108.341 531.66 103.825C534.338 99.3087 536.694 94.9308 538.726 90.6912C540.758 86.4516 542.328 82.6727 543.437 79.3548C544.545 75.9446 545.099 73.3179 545.099 71.4746C545.099 70.5529 544.961 69.9539 544.684 69.6774C544.499 69.4009 544.314 69.2626 544.129 69.2626C543.39 69.2626 542.097 70.4608 540.25 72.8571C538.495 75.1612 536.417 78.2949 534.015 82.258C531.614 86.2211 529.166 90.7373 526.672 95.8064C524.178 100.876 521.776 106.175 519.467 111.705C517.25 117.235 515.357 122.673 513.787 128.018ZM540.018 196.313C537.709 196.313 535.677 195.668 533.922 194.378C532.167 193.18 531.289 191.382 531.289 188.986C531.289 185.023 532.536 181.613 535.03 178.756C537.617 175.899 540.942 173.272 545.006 170.876C549.163 168.571 553.55 166.267 558.168 163.963C559.462 160.553 560.755 156.774 562.048 152.627C563.433 148.387 564.726 143.733 565.927 138.664C562.971 143.456 559.785 147.604 556.367 151.106C553.042 154.516 549.486 156.221 545.699 156.221C543.02 156.221 540.48 155.346 538.078 153.594C535.769 151.751 534.615 148.894 534.615 145.023C534.615 142.442 535.03 139.447 535.862 136.037C536.785 132.627 537.894 129.309 539.187 126.083C540.48 122.857 541.819 120.184 543.205 118.064C544.59 115.945 545.791 114.885 546.807 114.885C547.177 114.885 547.823 115.023 548.747 115.299C549.763 115.576 550.687 115.991 551.518 116.544C552.442 117.005 552.903 117.511 552.903 118.064C552.072 119.263 551.148 120.968 550.132 123.18C549.116 125.392 548.1 127.88 547.084 130.645C546.161 133.318 545.375 135.945 544.729 138.525C544.082 141.106 543.759 143.318 543.759 145.161C543.759 146.82 544.128 148.157 544.867 149.17C545.606 150.184 546.9 150.691 548.747 150.691C550.502 150.691 552.442 149.862 554.566 148.203C556.783 146.452 558.953 144.24 561.078 141.567C563.295 138.894 565.327 136.037 567.174 132.995C567.451 131.982 567.682 130.968 567.867 129.954C568.144 128.848 568.375 127.742 568.56 126.636C568.837 125.346 569.483 123.871 570.499 122.212C571.608 120.461 573.317 119.585 575.626 119.585C576.457 119.585 577.427 119.723 578.535 120C578.535 121.475 578.074 124.24 577.15 128.295C576.319 132.258 575.072 136.912 573.409 142.258C571.839 147.604 569.945 153.088 567.728 158.71C572.07 157.051 576.319 154.332 580.475 150.553C584.632 146.682 588.003 141.567 590.589 135.207L592.391 136.59C591.005 141.014 588.881 144.885 586.017 148.203C583.246 151.429 580.106 154.24 576.596 156.636C573.086 158.94 569.622 160.876 566.204 162.442C563.803 168.341 561.17 173.871 558.307 179.032C555.536 184.194 552.58 188.341 549.44 191.475C546.391 194.7 543.251 196.313 540.018 196.313ZM539.325 191.889C540.711 191.889 543.02 190.046 546.253 186.359C549.578 182.765 553.088 176.405 556.783 167.281C552.996 169.309 549.486 171.29 546.253 173.226C543.02 175.253 540.434 177.419 538.494 179.723C536.554 182.028 535.584 184.7 535.584 187.742C535.584 188.479 535.862 189.355 536.416 190.369C536.97 191.382 537.94 191.889 539.325 191.889Z" fill="#77AA8B"/>
</g>
<path d="M128.391 160.369C148.286 160.369 164.414 138.705 164.414 111.982C164.414 85.2584 148.286 63.5947 128.391 63.5947C108.495 63.5947 92.3672 85.2584 92.3672 111.982C92.3672 138.705 108.495 160.369 128.391 160.369Z" fill="#8D501D"/>
<g filter="url(#filter1_d)">
<path d="M72.5225 138.653C72.5225 134.468 71.5303 130.935 69.5459 128.055C67.6065 125.131 64.517 122.565 60.2775 120.36C56.0831 118.109 49.7238 115.814 41.1997 113.474C32.6755 111.134 26.2711 108.772 21.9865 106.387C17.747 104.002 14.6349 101.234 12.6505 98.0835C10.6661 94.9333 9.67376 91.1081 9.67376 86.6078C9.67376 79.4523 12.6956 73.6694 18.7392 69.2591C24.7828 64.8038 32.653 62.5762 42.3497 62.5762C48.6639 62.5762 54.3242 63.8138 59.3304 66.289C64.3817 68.7191 68.283 72.1618 71.0342 76.6171C73.7854 81.0274 75.161 86.0227 75.161 91.6031H71.5078C71.5078 84.2676 68.8017 78.2147 63.3895 73.4444C57.9774 68.6291 50.9641 66.2214 42.3497 66.2214C33.6903 66.2214 26.677 68.1565 21.31 72.0268C15.988 75.852 13.327 80.6673 13.327 86.4728C13.327 92.3683 15.6498 97.1158 20.2952 100.716C24.9406 104.317 32.6078 107.511 43.2969 110.302C53.9859 113.047 61.8109 116.242 66.7721 119.887C73.0863 124.522 76.2434 130.733 76.2434 138.519C76.2434 143.469 74.8453 147.857 72.049 151.682C69.2527 155.462 65.2838 158.388 60.1422 160.458C55.0007 162.528 49.2277 163.563 42.8233 163.563C35.6973 163.563 29.2929 162.392 23.6101 160.052C17.9274 157.667 13.6427 154.292 10.7562 149.927C7.91484 145.562 6.49414 140.409 6.49414 134.468H10.1473C10.1473 142.524 13.1691 148.779 19.2127 153.235C25.2564 157.69 33.1265 159.918 42.8233 159.918C51.4377 159.918 58.5411 157.96 64.1337 154.045C69.7263 150.084 72.5225 144.954 72.5225 138.653ZM165.274 120.427C165.274 128.933 163.741 136.471 160.673 143.041C157.652 149.566 153.321 154.629 147.684 158.23C142.046 161.785 135.552 163.563 128.2 163.563C117.105 163.563 108.13 159.625 101.275 151.749C94.4196 143.874 90.9915 133.253 90.9915 119.887V105.711C90.9915 97.2513 92.502 89.7354 95.5243 83.165C98.5909 76.5946 102.943 71.5317 108.581 67.9765C114.264 64.3764 120.758 62.5762 128.064 62.5762C135.416 62.5762 141.911 64.3764 147.548 67.9765C153.232 71.5317 157.606 76.6171 160.673 83.2325C163.741 89.8029 165.274 97.2955 165.274 105.711V120.427ZM161.621 105.577C161.621 93.6955 158.598 84.1776 152.555 77.0222C146.511 69.8217 138.348 66.2214 128.064 66.2214C117.917 66.2214 109.821 69.7991 103.778 76.9546C97.7346 84.0651 94.7124 93.7628 94.7124 106.049V120.427C94.7124 128.258 96.0655 135.189 98.7719 141.219C101.523 147.204 105.424 151.817 110.475 155.057C115.526 158.297 121.435 159.918 128.2 159.918C138.484 159.918 146.624 156.34 152.622 149.184C158.622 142.029 161.621 132.263 161.621 119.887V105.577ZM207.353 156.137L211.818 139.936L235.091 63.9263H239.149L262.287 139.936L266.684 156.137L271.284 139.936L291.58 63.9263H295.571L269.052 162.213H264.925L240.503 80.2623L237.053 69.8667L233.738 80.2623L209.112 162.213H204.985L178.398 63.9263H182.457L202.888 139.936L207.353 156.137Z" fill="black"/>
<path d="M69.5457 128.055L68.7753 128.563L68.7799 128.571L68.7845 128.577L69.5457 128.055ZM60.2774 120.36L59.8399 121.172L59.8504 121.177L60.2774 120.36ZM21.9863 106.387L21.5327 107.189L21.5363 107.191L21.9863 106.387ZM18.739 69.2589L19.2843 70.0029L19.2879 70.0002L18.739 69.2589ZM59.3302 66.2888L58.9201 67.1146L58.9291 67.1189L59.3302 66.2888ZM71.034 76.6169L70.2476 77.1004L70.2498 77.1039L71.034 76.6169ZM75.1608 91.6029V92.5248H76.0845V91.6029H75.1608ZM71.5076 91.6029H70.5839V92.5248H71.5076V91.6029ZM63.3893 73.4442L62.7746 74.1321L62.7779 74.1349L63.3893 73.4442ZM21.3098 72.0266L21.8497 72.7744L21.8508 72.7736L21.3098 72.0266ZM43.2967 110.302L43.0629 111.193L43.0664 111.194L43.2967 110.302ZM66.7719 119.887L66.2243 120.629L66.2246 120.63L66.7719 119.887ZM72.0488 151.681L72.792 152.229L72.795 152.225L72.0488 151.681ZM23.6099 160.052L23.2518 160.902L23.2576 160.905L23.6099 160.052ZM10.7561 149.927L9.98137 150.429L9.98507 150.434L10.7561 149.927ZM6.49399 134.468V133.546H5.57031V134.468H6.49399ZM10.1472 134.468H11.0708V133.546H10.1472V134.468ZM64.1335 154.045L64.6641 154.799L64.6681 154.796L64.1335 154.045ZM73.446 138.653C73.446 134.319 72.4166 130.595 70.3068 127.533L68.7845 128.577C70.6437 131.276 71.5987 134.617 71.5987 138.653H73.446ZM70.3161 127.547C68.2648 124.453 65.0349 121.795 60.7043 119.542L59.8504 121.177C63.999 123.335 66.9479 125.808 68.7753 128.563L70.3161 127.547ZM60.7147 119.548C56.428 117.248 49.989 114.931 41.4445 112.586L40.9544 114.363C49.4583 116.697 55.7379 118.971 59.8399 121.172L60.7147 119.548ZM41.4445 112.586C32.9446 110.252 26.6242 107.913 22.4363 105.581L21.5363 107.191C25.9177 109.63 32.4061 112.016 40.9544 114.363L41.4445 112.586ZM22.44 105.584C18.2946 103.251 15.3139 100.58 13.4323 97.593L11.8684 98.5736C13.9557 101.887 17.1989 104.751 21.5327 107.189L22.44 105.584ZM13.4323 97.593C11.5582 94.6179 10.5973 90.9709 10.5973 86.6076H8.74996C8.74996 91.2448 9.77355 95.2483 11.8684 98.5736L13.4323 97.593ZM10.5973 86.6076C10.5973 79.761 13.4662 74.2486 19.2843 70.0029L18.1938 68.5149C11.9247 73.0898 8.74996 79.1431 8.74996 86.6076H10.5973ZM19.2879 70.0002C25.1318 65.6921 32.7928 63.4976 42.3496 63.4976V61.6543C32.5127 61.6543 24.4334 63.9151 18.1902 68.5176L19.2879 70.0002ZM42.3496 63.4976C48.5401 63.4976 54.0571 64.7102 58.9201 67.1146L59.7403 65.4629C54.5909 62.917 48.7874 61.6543 42.3496 61.6543V63.4976ZM58.9291 67.1189C63.833 69.4782 67.5956 72.8055 70.2476 77.1004L71.8205 76.1334C68.9702 71.5177 64.9302 67.9596 59.7314 65.4585L58.9291 67.1189ZM70.2498 77.1039C72.9031 81.3572 74.2372 86.1813 74.2372 91.6029H76.0845C76.0845 85.8636 74.6674 80.6972 71.8182 76.1299L70.2498 77.1039ZM75.1608 90.6812H71.5076V92.5248H75.1608V90.6812ZM72.4313 91.6029C72.4313 84.0086 69.6156 77.7022 64.0009 72.7535L62.7779 74.1349C67.9875 78.7267 70.5839 84.5262 70.5839 91.6029H72.4313ZM64.0041 72.7562C58.3919 67.763 51.1456 65.2996 42.3496 65.2996V67.1429C50.7822 67.1429 57.5625 69.4948 62.7746 74.1321L64.0041 72.7562ZM42.3496 65.2996C33.5553 65.2996 26.3354 67.2654 20.7687 71.2795L21.8508 72.7736C27.0182 69.0473 33.8249 67.1429 42.3496 67.1429V65.2996ZM20.7699 71.2787C15.2424 75.2517 12.4032 80.3298 12.4032 86.4725H14.2505C14.2505 81.0045 16.7333 76.4519 21.8497 72.7744L20.7699 71.2787ZM12.4032 86.4725C12.4032 92.6511 14.8565 97.6677 19.7284 101.444L20.8616 99.9884C16.4426 96.5635 14.2505 92.0847 14.2505 86.4725H12.4032ZM19.7284 101.444C24.5251 105.162 32.3405 108.394 43.0629 111.193L43.5305 109.41C32.8748 106.628 25.3558 103.471 20.8616 99.9884L19.7284 101.444ZM43.0664 111.194C53.7171 113.929 61.4059 117.089 66.2243 120.629L67.3197 119.145C62.2157 115.395 54.2544 112.164 43.527 109.409L43.0664 111.194ZM66.2246 120.63C72.3035 125.093 75.3195 131.027 75.3195 138.518H77.1669C77.1669 130.438 73.8692 123.952 67.3197 119.145L66.2246 120.63ZM75.3195 138.518C75.3195 143.283 73.9781 147.479 71.3026 151.139L72.795 152.225C75.7121 148.234 77.1669 143.655 77.1669 138.518H75.3195ZM71.3057 151.134C68.6277 154.754 64.808 157.585 59.7964 159.602L60.4877 161.312C65.7592 159.189 69.8774 156.169 72.792 152.229L71.3057 151.134ZM59.7964 159.602C54.7804 161.622 49.1272 162.641 42.8231 162.641V164.484C49.3278 164.484 55.2206 163.433 60.4877 161.312L59.7964 159.602ZM42.8231 162.641C35.799 162.641 29.517 161.488 23.9623 159.2L23.2576 160.905C29.0684 163.297 35.5953 164.484 42.8231 164.484V162.641ZM23.9681 159.202C18.4235 156.876 14.2961 153.607 11.5271 149.419L9.98507 150.434C12.989 154.977 17.4309 158.458 23.2518 160.902L23.9681 159.202ZM11.5307 149.424C8.79981 145.229 7.41766 140.256 7.41766 134.468H5.57031C5.57031 140.561 7.02946 145.893 9.98137 150.429L11.5307 149.424ZM6.49399 135.389H10.1472V133.546H6.49399V135.389ZM9.22352 134.468C9.22352 142.79 12.3646 149.332 18.6637 153.975L19.7614 152.493C13.9733 148.226 11.0708 142.257 11.0708 134.468H9.22352ZM18.6637 153.975C24.907 158.578 32.9863 160.839 42.8231 160.839V158.996C33.2664 158.996 25.6054 156.801 19.7614 152.493L18.6637 153.975ZM42.8231 160.839C51.5776 160.839 58.8799 158.848 64.6641 154.799L63.603 153.29C58.2022 157.071 51.2974 158.996 42.8231 158.996V160.839ZM64.6681 154.796C70.4802 150.681 73.446 145.281 73.446 138.653H71.5987C71.5987 144.626 68.972 149.488 63.5989 153.293L64.6681 154.796ZM160.673 143.041L159.836 142.652L159.834 142.655L160.673 143.041ZM147.684 158.23L148.177 159.009L148.182 159.006L147.684 158.23ZM95.5241 83.1648L94.6863 82.7757L94.6845 82.7804L95.5241 83.1648ZM108.581 67.9763L109.074 68.7554L109.076 68.7544L108.581 67.9763ZM147.548 67.9763L147.05 68.7526L147.058 68.7571L147.548 67.9763ZM160.673 83.2323L159.835 83.6193L159.836 83.6214L160.673 83.2323ZM152.555 77.0219L151.846 77.6137L151.848 77.6159L152.555 77.0219ZM103.778 76.9544L104.482 77.5505L104.484 77.5483L103.778 76.9544ZM98.7718 141.219L97.9284 141.595L97.9321 141.603L98.7718 141.219ZM164.35 120.427C164.35 128.822 162.837 136.222 159.836 142.652L161.511 143.43C164.643 136.718 166.197 129.044 166.197 120.427H164.35ZM159.834 142.655C156.881 149.033 152.664 153.955 147.186 157.453L148.182 159.006C153.979 155.304 158.422 150.1 161.512 143.428L159.834 142.655ZM147.19 157.45C141.715 160.904 135.396 162.641 128.2 162.641V164.484C135.708 164.484 142.377 162.667 148.177 159.009L147.19 157.45ZM128.2 162.641C117.354 162.641 108.64 158.805 101.972 151.145L100.578 152.353C107.62 160.445 116.856 164.484 128.2 164.484V162.641ZM101.972 151.145C95.2997 143.48 91.915 133.095 91.915 119.887H90.0677C90.0677 133.411 93.5382 144.268 100.578 152.353L101.972 151.145ZM91.915 119.887V105.711H90.0677V119.887H91.915ZM91.915 105.711C91.915 97.3607 93.4061 89.9802 96.3637 83.5492L94.6845 82.7804C91.5987 89.4902 90.0677 97.1405 90.0677 105.711H91.915ZM96.361 83.5539C99.3601 77.1289 103.6 72.2078 109.074 68.7554L108.087 67.1972C102.286 70.8552 97.8213 76.0599 94.6863 82.7757L96.361 83.5539ZM109.076 68.7544C114.598 65.256 120.918 63.4976 128.064 63.4976V61.6543C120.598 61.6543 113.929 63.4962 108.086 67.1983L109.076 68.7544ZM128.064 63.4976C135.258 63.4976 141.576 65.2565 147.05 68.7526L148.046 67.2C142.245 63.4957 135.575 61.6543 128.064 61.6543V63.4976ZM147.058 68.7571C152.576 72.209 156.836 77.151 159.835 83.6193L161.512 82.8454C158.377 76.0829 153.887 70.854 148.039 67.1955L147.058 68.7571ZM159.836 83.6214C162.837 90.0519 164.35 97.4087 164.35 105.711H166.197C166.197 97.1829 164.643 89.5536 161.511 82.8431L159.836 83.6214ZM164.35 105.711V120.427H166.197V105.711H164.35ZM162.544 105.576C162.544 93.5386 159.479 83.7904 153.261 76.4279L151.848 77.6159C157.717 84.5643 160.697 93.8529 160.697 105.576H162.544ZM153.263 76.4301C147.026 68.9996 138.592 65.2996 128.064 65.2996V67.1429C138.103 67.1429 145.997 70.6433 151.846 77.6137L153.263 76.4301ZM128.064 65.2996C117.67 65.2996 109.306 68.9786 103.071 76.3605L104.484 77.5483C110.336 70.6193 118.163 67.1429 128.064 67.1429V65.2996ZM103.073 76.3583C96.8487 83.6819 93.7885 93.6151 93.7885 106.048H95.6359C95.6359 93.911 98.6193 84.4477 104.482 77.5505L103.073 76.3583ZM93.7885 106.048V120.427H95.6359V106.048H93.7885ZM93.7885 120.427C93.7885 128.363 95.1602 135.426 97.9284 141.595L99.6141 140.842C96.9706 134.95 95.6359 128.152 95.6359 120.427H93.7885ZM97.9321 141.603C100.749 147.732 104.761 152.487 109.976 155.833L110.974 154.281C106.086 151.146 102.296 146.676 99.6114 140.834L97.9321 141.603ZM109.976 155.833C115.195 159.18 121.281 160.839 128.2 160.839V158.996C121.588 158.996 115.859 157.414 110.974 154.281L109.976 155.833ZM128.2 160.839C138.725 160.839 147.138 157.163 153.331 149.775L151.914 148.593C146.11 155.516 138.24 158.996 128.2 158.996V160.839ZM153.331 149.775C159.508 142.407 162.544 132.408 162.544 119.887H160.697C160.697 132.118 157.734 141.65 151.914 148.593L153.331 149.775ZM162.544 119.887V105.576H160.697V119.887H162.544ZM207.353 156.137L206.462 156.381L207.353 159.613L208.244 156.381L207.353 156.137ZM211.818 139.936L210.935 139.667L210.931 139.679L210.927 139.692L211.818 139.936ZM235.091 63.9261V63.0044H234.406L234.207 63.6568L235.091 63.9261ZM239.149 63.9261L240.033 63.6583L239.835 63.0044H239.149V63.9261ZM262.286 139.936L263.178 139.695L263.174 139.681L263.17 139.668L262.286 139.936ZM266.684 156.137L265.792 156.378L266.664 159.588L267.573 156.388L266.684 156.137ZM271.284 139.936L272.173 140.187L272.174 140.18L272.176 140.174L271.284 139.936ZM291.58 63.9261V63.0044H290.87L290.688 63.6888L291.58 63.9261ZM295.571 63.9261L296.463 64.1656L296.776 63.0044H295.571V63.9261ZM269.051 162.212V163.134H269.76L269.944 162.452L269.051 162.212ZM264.924 162.212L264.04 162.475L264.235 163.134H264.924V162.212ZM240.502 80.2621L241.387 79.9995L241.384 79.9858L241.379 79.9724L240.502 80.2621ZM237.052 69.8665L237.929 69.5767L237.035 66.8819L236.172 69.587L237.052 69.8665ZM233.737 80.2621L232.857 79.9827L232.854 79.9901L232.853 79.9974L233.737 80.2621ZM209.112 162.212V163.134H209.799L209.996 162.477L209.112 162.212ZM204.985 162.212L204.093 162.453L204.278 163.134H204.985V162.212ZM178.398 63.9261V63.0044H177.192L177.506 64.1663L178.398 63.9261ZM182.457 63.9261L183.349 63.6873L183.165 63.0044H182.457V63.9261ZM202.888 139.936L201.995 140.175L201.997 140.18L202.888 139.936ZM208.244 156.381L212.708 140.18L210.927 139.692L206.462 155.893L208.244 156.381ZM212.702 140.205L235.974 64.1954L234.207 63.6568L210.935 139.667L212.702 140.205ZM235.091 64.8477H239.149V63.0044H235.091V64.8477ZM238.265 64.1939L261.402 140.204L263.17 139.668L240.033 63.6583L238.265 64.1939ZM261.395 140.176L265.792 156.378L267.575 155.896L263.178 139.695L261.395 140.176ZM267.573 156.388L272.173 140.187L270.395 139.684L265.795 155.886L267.573 156.388ZM272.176 140.174L292.472 64.1633L290.688 63.6888L270.392 139.699L272.176 140.174ZM291.58 64.8477H295.571V63.0044H291.58V64.8477ZM294.68 63.6865L268.16 161.973L269.944 162.452L296.463 64.1656L294.68 63.6865ZM269.051 161.291H264.924V163.134H269.051V161.291ZM265.81 161.95L241.387 79.9995L239.617 80.5248L264.04 162.475L265.81 161.95ZM241.379 79.9724L237.929 69.5767L236.175 70.1562L239.626 80.5519L241.379 79.9724ZM236.172 69.587L232.857 79.9827L234.618 80.5416L237.933 70.1459L236.172 69.587ZM232.853 79.9974L208.227 161.948L209.996 162.477L234.622 80.5268L232.853 79.9974ZM209.112 161.291H204.985V163.134H209.112V161.291ZM205.877 161.972L179.29 63.6859L177.506 64.1663L204.093 162.453L205.877 161.972ZM178.398 64.8477H182.457V63.0044H178.398V64.8477ZM181.565 64.1648L201.995 140.175L203.78 139.697L183.349 63.6873L181.565 64.1648ZM201.997 140.18L206.462 156.381L208.244 155.893L203.779 139.692L201.997 140.18Z" fill="black"/>
</g>
<path d="M124.259 13.1247C120.05 12.9153 118.591 6.89592 118.252 4.04329C121.978 2.98336 127.059 10.1673 124.259 13.1247Z" fill="#C0D23F"/>
<path d="M124.259 13.2684C120.063 13.0721 118.317 6.98738 118.135 3.95155C121.756 2.5514 127.554 10.3111 124.259 13.2684ZM118.421 4.17401C118.747 7.23601 120.337 12.7581 124.232 12.9674C126.773 9.81388 121.692 3.28419 118.421 4.17401Z" fill="#84A42E"/>
<g opacity="0.4">
<path opacity="0.4" d="M124.219 7.64227C124.415 9.86677 123.659 9.48733 123.463 7.57684C123.359 7.32821 123.138 7.83854 123.098 7.95631C122.799 7.61609 123.021 6.83097 122.721 6.39914C122.565 8.67602 121.822 3.15394 118.252 4.05684C118.591 6.9749 120.076 12.9288 124.259 13.1382C125.04 12.7718 125.326 9.9453 124.219 7.64227Z" fill="#98C22E"/>
</g>
<path d="M127.53 0.130859C122.084 2.51242 124.156 8.19152 125.211 12.4313C127.673 8.67569 129.198 6.21562 127.53 0.130859Z" fill="#C0D23F"/>
<path d="M125.211 12.5752C123.764 8.2177 122.031 2.39465 127.464 0C127.816 0.274795 127.464 1.42632 128.442 3.40223C129.263 6.7652 125.601 12.3265 125.211 12.5752ZM127.269 0.457993C122.552 2.56476 124.155 7.96907 125.275 12.0648C127.464 9.17293 129.197 4.50141 127.269 0.457993Z" fill="#84A42E"/>
<g opacity="0.4">
<path opacity="0.4" d="M127.425 0.536133C126.422 0.902527 125.588 4.99829 125.406 2.79993C125.185 2.04097 125.015 3.45419 125.054 3.71591C125.406 6.76483 123.334 6.6994 124.025 3.71591C123.087 5.53479 125.25 11.8289 125.21 12.4308C126.644 10.7035 129.783 4.86743 127.425 0.536133Z" fill="#98C22E"/>
</g>
<g opacity="0.5">
<g opacity="0.5">
<path opacity="0.5" d="M122.579 8.66301C121.941 7.65544 120.534 6.75254 119.479 6.63477C120.639 7.06659 121.759 8.15268 122.579 8.66301Z" fill="#84A42E"/>
</g>
<g opacity="0.5">
<path opacity="0.5" d="M123.322 10.5991C122.814 10.2197 121.955 9.57846 121.434 9.65699C122.033 9.76159 122.932 10.8478 123.322 10.5991Z" fill="#84A42E"/>
</g>
<g opacity="0.5">
<path opacity="0.5" d="M123.532 7.7334C123.284 8.08671 123.218 8.81949 123.336 9.30367C123.557 9.01578 123.284 8.1783 123.532 7.7334Z" fill="#84A42E"/>
</g>
<g opacity="0.5">
<path opacity="0.5" d="M122.502 7.09235C122.398 6.90916 122.541 6.2418 122.384 6.30723C122.111 7.04001 123.218 9.08135 122.502 7.09235Z" fill="#84A42E"/>
</g>
</g>
<g opacity="0.5">
<g opacity="0.5">
<path opacity="0.5" d="M126.657 4.93359C126.239 5.31307 125.198 6.11129 125.354 6.53003C125.627 5.87575 126.239 5.3785 126.657 4.93359Z" fill="#84A42E"/>
</g>
<g opacity="0.5">
<path opacity="0.5" d="M125.172 3.27148C125.068 3.59862 125.315 4.22673 125.368 4.65854C125.615 4.40992 125.225 3.66405 125.172 3.27148Z" fill="#84A42E"/>
</g>
<g opacity="0.5">
<path opacity="0.5" d="M126.722 3.72949C126.332 3.808 125.576 4.81558 125.837 4.8941C125.993 4.40993 126.371 4.01737 126.722 3.72949Z" fill="#84A42E"/>
</g>
</g>
<path d="M124.767 14.6171C124.767 14.6171 122.813 6.51712 118.891 4.30566C122.748 6.60871 124.963 11.5943 124.767 14.6171Z" fill="#C0D23F"/>
<path d="M124.768 14.761C124.573 14.5647 122.449 6.55636 118.762 4.24023C123.622 6.51711 125.485 13.4001 124.768 14.761ZM121.745 7.00128C123.362 9.46134 124.352 12.5626 124.73 13.9104C124.69 13.1646 123.87 9.84079 121.745 7.00128Z" fill="#5F8533"/>
<path d="M125.263 12.915C125.263 12.915 124.312 6.34613 127.165 1.64844C124.794 3.99074 124.077 9.19877 125.093 13.3992L125.263 12.915Z" fill="#C0D23F"/>
<path d="M125.093 13.5565C123.687 9.36909 124.742 3.33666 127.257 1.54395C124.364 6.7258 125.81 12.9022 125.093 13.5565ZM126.305 3.0226C124.899 5.40417 124.403 9.19896 125.106 12.732C124.989 11.7114 124.585 7.02677 126.305 3.0226Z" fill="#5F8533"/>
<path d="M129.993 42.6723C126.059 39.0999 131.27 33.9704 135.049 33.1067C137.667 32.0861 148.651 32.9236 147.556 32.374C145.563 35.5276 146.605 40.6048 142.54 45.4071C136.872 51.6489 130.944 48.5477 129.993 42.6723Z" fill="#86B133"/>
<path d="M136.025 48.9658C131.283 49.0705 130.749 44.9486 129.902 42.8026C125.967 39.0993 130.762 34.0615 134.996 32.9753C138.122 31.8238 145.432 32.9361 147.647 32.2949C146.018 37.1757 144.338 49.1359 136.025 48.9658ZM130.058 42.5539C131.361 48.992 137.106 51.1249 142.422 45.328C146.24 40.8921 145.262 36.4953 147.256 32.6089C144.233 33.3417 138.54 32.0332 135.074 33.2632C131.087 34.297 126.396 38.9685 130.058 42.5539Z" fill="#528C45"/>
<g opacity="0.5">
<path opacity="0.5" d="M146.76 33.132C144.701 33.4853 142.473 34.8331 140.467 34.5191C140.559 34.3358 140.871 33.9564 140.467 34.0218C138.604 34.2311 135.529 38.8242 136.989 34.1004C135.425 34.5845 135.113 36.495 134.057 37.568C131.295 39.6224 132.233 35.8276 133.575 34.7023C131.803 35.3957 131.047 40.4337 130.057 39.5046C129.34 38.5886 129.548 37.3062 129.966 36.3118C128.519 37.8951 127.842 41.2319 129.966 42.6582C129.966 42.6582 130.487 42.9853 130.552 43.9275C130.708 49.1225 138.382 50.8367 142.526 45.3931C146.591 40.3945 145.392 36.5996 147.242 32.9619C147.086 33.0403 146.916 33.0927 146.76 33.132Z" fill="#86B133"/>
</g>
<g opacity="0.5">
<path opacity="0.5" d="M146.305 33.2761C143.764 37.1102 144.181 43.0118 139.816 45.7074C135.373 48.8872 129.758 43.3258 135.335 42.7239C136.455 42.8809 137.654 43.5221 138.787 43.1296C140.337 42.2921 134.266 43.0641 135.269 40.8526C136.859 37.9869 141.64 40.2638 143.217 38.301C142.24 38.4841 138.487 39.1646 138.969 37.542C140.624 36.2334 143.308 37.385 144.846 35.9325C141.263 36.2989 142.292 35.0819 144.78 34.1005C141.953 34.1529 139.204 35.1604 136.702 36.1157C133.602 36.6261 131.556 42.135 128.846 41.206C129.223 42.6715 130.253 42.1088 130.566 43.9539C130.631 44.8961 130.826 46.8589 133.302 48.1674C142.487 52.1585 145.979 38.4188 147.255 32.9883C146.93 33.093 146.617 33.1845 146.305 33.2761Z" fill="#86B133"/>
</g>
<path d="M121.535 46.1266C121.535 46.1266 123.398 48.3642 121.457 51.1908C115.412 58.3354 110.474 42.0963 106.994 40.8008C109.119 38.5894 120.871 36.6004 122.669 42.4235C124.961 47.2127 120.414 44.5825 121.535 46.1266Z" fill="#86B133"/>
<path d="M118.345 53.0098C112.912 53.0229 110.045 42.1882 106.918 40.6964C119.087 32.8844 127.621 45.9698 121.458 45.6427C121.471 45.6427 121.471 45.7213 121.68 46.0615C123.139 46.8074 122.553 53.2978 118.345 53.0098ZM107.296 40.8011C110.683 42.162 112.976 52.7744 118.345 52.722C122.266 52.9837 122.801 46.9121 121.433 46.2316C120.403 44.5828 122.553 46.0615 122.97 45.1193C123.934 37.3989 111.165 37.6344 107.296 40.8011Z" fill="#528C45"/>
<g opacity="0.5">
<path opacity="0.5" d="M122.097 45.6154C123.687 46.0343 123.517 43.1816 122.279 41.7945C123.687 47.2643 119.83 41.4282 118.657 40.1065C119.348 40.8786 120.247 42.1216 119.947 43.247C118.084 42.017 117.341 38.6671 114.41 39.2166C115.283 39.1774 117.081 41.5851 115.426 41.3366C113.25 39.9495 108.781 38.9288 107.01 40.8001C110.488 42.0824 115.439 58.3346 121.485 51.1899C124.116 47.6045 119.882 45.2229 122.097 45.6154Z" fill="#86B133"/>
</g>
<g opacity="0.5">
<path opacity="0.5" d="M122.098 45.6163C122.346 45.6817 122.566 45.6425 122.749 45.5378C118.697 44.3077 115.153 40.5914 110.567 41.141C111.284 41.1933 118.528 42.3187 116.039 43.2347C114.841 43.3525 113.173 42.7899 112.339 43.9414C114.216 44.203 117.16 43.3787 119.258 44.491C120.847 45.6948 117.707 45.8649 117.277 46.8071C115.844 49.5681 122.28 42.9075 121.29 48.9138C120.144 51.5833 115.44 51.5702 114.436 48.7699C114.046 46.9771 113.994 45.3022 112.3 44.1245C112.248 44.1245 112.183 44.1114 112.235 44.0591C111.205 42.9337 109.837 42.1617 108.326 41.8476C111.205 44.7526 115.974 57.668 121.472 51.2038C124.117 47.6052 119.883 45.2237 122.098 45.6163Z" fill="#86B133"/>
</g>
<path d="M130.214 21.0939C130.214 21.0939 128.026 20.8321 127.947 18.5422C129.759 11.8816 136.807 12.0649 144.82 13.2164C141.289 17.0243 142.761 22.6641 137.25 25.6084C134.227 27.0478 131.231 25.4251 130.631 23.41C130.175 21.4341 130.853 21.0154 130.214 21.0939Z" fill="#86B133"/>
<path d="M134.891 26.3151C131.908 26.446 129.784 23.6587 130.357 21.238C130.188 21.2642 127.921 21.0155 127.791 18.5554C128.429 13.1773 134.37 12.7455 139.452 12.4053C146.943 12.8763 144.415 12.3791 142.448 18.2152C141.615 21.2773 139.452 26.289 134.891 26.3151ZM130.331 20.937C130.631 20.9239 130.696 21.1595 130.644 21.4866C129.902 24.7187 134.227 27.1787 137.198 25.4776C142.513 22.6381 141.263 17.103 144.546 13.3081C138.982 12.2613 129.224 11.9996 128.103 18.5423C128.195 20.7276 130.162 20.9501 130.331 20.937Z" fill="#528C45"/>
<g opacity="0.5">
<path opacity="0.5" d="M144.024 13.7267C143.243 13.923 140.102 15.2447 140.663 13.8183C140.755 13.6743 140.806 13.6482 140.585 13.6482C139.295 13.6612 133.966 17.8748 136.95 13.7659C136.194 13.3342 130.995 20.6489 132.272 15.9513C131.607 17.7308 128.129 20.7274 128.246 17.0243C126.97 19.0394 129.549 21.421 130.214 21.0808C130.852 21.0023 130.175 21.421 130.63 23.3969C131.23 25.412 134.227 27.0478 137.249 25.5953C142.605 22.6903 141.366 17.4692 144.507 13.5566C144.35 13.6221 144.18 13.6743 144.024 13.7267Z" fill="#86B133"/>
</g>
<g opacity="0.5">
<path opacity="0.5" d="M143.868 14.4465C140.441 17.129 140.936 23.1745 136.689 24.7709C134.135 25.7262 130.617 22.6249 134.591 21.6959C135.712 21.5388 137.131 21.9445 138.004 21.0285C136.871 21.4472 133.549 21.5258 133.77 19.7985C135.451 17.8094 138.917 20.4658 140.558 18.503C134.76 18.3852 139.295 15.2447 142.265 14.9306C138.317 14.1717 132.754 18.9086 128.324 19.877C128.975 20.9369 130.213 21.0809 130.213 21.0809C130.851 21.0023 130.174 21.4211 130.63 23.397C131.229 25.4121 134.227 27.0479 137.249 25.5953C142.226 22.8343 141.47 18.359 143.894 14.4072C143.881 14.4334 143.868 14.4465 143.868 14.4465Z" fill="#86B133"/>
</g>
<path d="M119.66 20.6885C119.66 20.6885 121.106 23.2533 118.149 24.6795C112.729 28.6969 106.592 15.2711 106.371 13.2429C116.377 7.77311 126.201 19.1182 119.66 20.6885Z" fill="#86B133"/>
<path d="M115.894 25.3595C111.79 26.9559 106.044 14.0013 106.227 13.2815C115.19 7.48469 126.617 18.3326 119.894 20.8319C121.145 23.1349 118.278 25.5426 115.894 25.3595ZM106.552 13.3208C106.787 14.7602 111.751 26.2885 115.894 25.0585C118.408 25.3595 120.793 22.5461 119.543 20.6095C126.148 18.6859 115.751 8.16513 106.552 13.3208Z" fill="#528C45"/>
<g opacity="0.5">
<path opacity="0.5" d="M121.145 16.6975C121.64 17.8097 121.263 19.4978 119.921 18.2547C118.879 18.0322 116.26 11.5418 116.234 14.5646C116.194 17.391 114.201 12.5363 113.785 12.3662C116.716 17.7574 111.374 11.0446 106.371 13.2429C106.696 15.4543 112.69 28.6184 118.149 24.6666C121.106 23.2402 119.66 20.6755 119.66 20.6755C121.602 20.7801 122.292 18.9351 121.145 16.6975Z" fill="#86B133"/>
</g>
<g opacity="0.5">
<path opacity="0.5" d="M120.65 20.5316C116.989 17.6659 113.249 13.099 107.986 14.8917C110.37 14.8133 113.119 15.9386 114.657 17.5612C113.276 16.7237 111.413 17.0247 110.097 17.8229C112.598 17.7706 116.507 17.0509 117.993 19.5502C116.755 20.1129 114.344 19.1445 113.745 20.4793C123.752 18.2286 118.67 27.3753 112.507 22.3374C110.279 19.7465 109.549 15.991 106.605 13.9365C107.426 17.3649 113.276 28.3567 118.162 24.6797C121.119 23.2534 119.674 20.6887 119.674 20.6887C120.038 20.7018 120.364 20.6494 120.65 20.5316Z" fill="#86B133"/>
</g>
<path d="M125.94 11.2277C123.791 8.11332 130.293 3.53339 132.937 3.42871C133.927 6.12432 129.589 15.8468 125.94 11.2277Z" fill="#C0D23F"/>
<path d="M127.659 12.5356C125.471 12.2609 123.881 9.44741 127.777 5.65265C130.005 3.9908 132.872 3.28418 132.897 3.28418C133.301 3.31035 133.171 6.03213 132.364 8.55764C131.555 10.7167 129.406 12.5356 127.659 12.5356ZM132.793 3.61131C129.797 3.85994 124.063 8.47912 126.071 11.1486C129.536 15.5322 133.719 6.13682 132.793 3.61131Z" fill="#84A42E"/>
<g opacity="0.4">
<path opacity="0.4" d="M132.871 3.4418C132.103 4.56714 130.682 5.5093 129.536 6.04581C129.536 5.66633 129.496 5.40462 129.131 5.75793C128.65 6.5038 126.786 9.55272 127.49 6.7786C126.461 7.18425 127.099 9.81447 125.665 9.38258C125.353 14.3289 130.695 12.5493 132.22 8.51897C133.093 6.15049 132.923 3.42871 132.923 3.42871C132.923 3.42871 132.91 3.42871 132.871 3.4418Z" fill="#98C22E"/>
</g>
<g opacity="0.4">
<path opacity="0.4" d="M132.873 3.4412C132.547 6.03214 132.351 10.8214 128.938 10.9916C129.016 9.86622 130.723 9.97083 131.388 9.31663C131.309 8.71466 130.214 9.42124 129.837 9.52594C129.498 9.66991 128.364 10.2457 128.377 9.43433C128.872 7.85102 131.153 7.78559 132.221 6.71258C128.912 7.236 131.622 5.54797 132.664 4.60581C131.4 4.72358 129.459 7.40611 129.133 6.30693C128.625 6.89578 127.987 9.09414 127.075 8.40061C126.931 9.15956 126.54 10.1802 125.654 10.1541C126.072 14.2106 130.827 12.1693 132.221 8.5053C133.094 6.13682 132.925 3.41504 132.925 3.41504C132.925 3.41504 132.912 3.42812 132.873 3.4412Z" fill="#98C22E"/>
</g>
<path d="M132.26 35.6582C131.53 36.9799 130.8 40.3821 131.595 40.984C131.347 39.1128 131.908 37.0715 132.26 35.6582Z" fill="#528C45"/>
<path d="M136.025 34.7939C135.517 35.3566 134.696 38.3925 135.321 38.2092C135.295 37.0839 135.79 35.5529 136.025 34.7939Z" fill="#528C45"/>
<path d="M139.777 34.5977C139.568 34.8332 138.708 35.9717 139.099 35.8801C139.177 35.5006 140.037 34.7024 139.777 34.5977Z" fill="#528C45"/>
<path d="M137.275 43.0377C135.66 43.1161 133.966 41.4936 132.715 41.4805C133.809 42.2133 136.141 43.5218 137.275 43.0377Z" fill="#528C45"/>
<path d="M142.577 38.4841C140.793 39.2038 138.239 38.1701 136.832 38.3532C138.552 38.7851 141.079 39.3347 142.577 38.4841Z" fill="#528C45"/>
<path d="M144.024 35.7491C142.89 36.1809 141.093 35.1602 140.311 35.5004C141.236 35.9454 143.334 36.4034 144.024 35.7491Z" fill="#528C45"/>
<path d="M115.295 39.1123C115.465 39.9498 116.442 41.206 116.793 42.2529C117.055 41.3631 115.856 39.9498 115.295 39.1123Z" fill="#528C45"/>
<path d="M119.244 40.748C119.622 41.6117 120.208 42.9987 120.377 44.0848C120.716 43.3128 119.831 41.4939 119.244 40.748Z" fill="#528C45"/>
<path d="M114.462 41.7946C113.12 41.3758 111.335 41.2057 110.084 41.4282C111.439 41.3235 113.472 42.1217 114.462 41.7946Z" fill="#528C45"/>
<path d="M119.283 44.0322C117.498 43.2078 114.489 43.1293 112.873 43.9798C114.736 43.2601 117.694 43.8751 119.283 44.0322Z" fill="#528C45"/>
<path d="M121.198 45.4062C119.896 45.6287 117.863 46.2176 117.406 47.4345C118.176 46.0474 120.351 46.126 121.198 45.4062Z" fill="#528C45"/>
<path d="M132.493 15.1533C131.921 16.0563 130.5 19.3407 131.334 19.5501C131.191 18.0583 132.286 16.1086 132.493 15.1533Z" fill="#528C45"/>
<path d="M136.167 14.1582C135.594 14.5769 134.383 16.7622 134.968 16.7753C134.994 15.7939 135.998 14.7078 136.167 14.1582Z" fill="#528C45"/>
<path d="M140.663 13.7402C140.18 13.9496 138.669 14.774 138.982 15.1142C139.372 14.5516 140.415 14.1851 140.663 13.7402Z" fill="#528C45"/>
<path d="M139.23 18.2147C137.719 18.8036 135.231 17.6782 134.227 18.1885C135.686 18.6203 137.914 18.869 139.23 18.2147Z" fill="#528C45"/>
<path d="M135.256 21.081C133.875 21.3035 132.65 20.8455 131.334 20.5576C131.764 21.2643 134.461 21.6306 135.256 21.081Z" fill="#528C45"/>
<path d="M113.666 12.3135C113.966 13.2818 114.592 14.5903 114.878 15.7419C115.021 14.7474 114.2 13.2818 113.666 12.3135Z" fill="#528C45"/>
<path d="M117.797 15.4935C117.563 14.9963 117.289 14.0018 117.016 13.7793C117.472 14.9701 117.967 16.1478 118.11 17.4302C118.436 17.0638 117.888 16.0562 117.797 15.4935Z" fill="#528C45"/>
<path d="M112.181 15.3621C111.152 15.2574 109.562 14.9565 108.754 15.3621C109.784 15.2182 111.477 15.807 112.181 15.3621Z" fill="#528C45"/>
<path d="M116.807 17.9535C114.905 17.7441 112.768 17.4039 110.957 17.6264C112.781 17.417 115.308 18.4507 116.807 17.9535Z" fill="#528C45"/>
<path d="M118.735 20.1251C117.524 19.811 115.752 19.6802 114.762 20.2298C116.012 19.7979 117.823 20.413 118.735 20.1251Z" fill="#528C45"/>
<g opacity="0.5">
<g opacity="0.5">
<path opacity="0.5" d="M130.813 9.21191C129.823 9.63068 127.999 10.1279 127.568 10.9522C128.598 10.2981 129.875 9.83999 130.813 9.21191Z" fill="#84A42E"/>
</g>
<g opacity="0.5">
<path opacity="0.5" d="M131.008 7.13184C130.357 7.22344 129.132 7.4328 128.885 7.9824C129.51 7.52441 130.396 7.45898 131.008 7.13184Z" fill="#84A42E"/>
</g>
<g opacity="0.5">
<path opacity="0.5" d="M129.185 5.8623C129.25 6.28103 128.742 7.05308 128.833 7.23628C129.068 6.92222 129.38 6.03242 129.185 5.8623Z" fill="#84A42E"/>
</g>
<g opacity="0.5">
<path opacity="0.5" d="M127.073 8.1264C127.45 5.58781 126.552 8.50587 126.942 9.40876C127.269 9.26479 126.93 8.49279 127.073 8.1264Z" fill="#84A42E"/>
</g>
</g>
<path d="M111.791 86.6C114.058 83.0538 121.733 87.8954 125.602 84.2839C121.941 88.5758 116.885 91.6902 117.732 97.7227C117.407 90.1723 124.755 87.5029 127.947 82.1378C126.774 90.4864 133.38 96.1135 133.354 103.101C134.345 96.2305 126.371 88.0524 130.305 82.8444C130.436 86.5738 144.012 87.4898 143.894 91.6641C142.866 84.8073 129.394 87.7646 130.149 78.5C132.194 62.4703 120.625 42.3186 142.891 34.5459C139.908 34.3103 127.087 42.4495 127.882 47.5136C125.146 35.6712 125.198 18.3722 141.549 14.7344C135.23 14.4989 126.84 22.8344 125.798 28.5265C125.628 24.6009 125.068 8.20476 131.986 4.77637C125.25 7.94306 123.165 19.5368 124.025 26.1973C124.025 26.1973 120.468 14.7475 108.912 14.3811C127.074 16.4487 126.058 48.9137 127.608 55.9276C127.608 55.9276 126.071 42.9598 111.648 40.9054C111.648 40.9054 123.478 42.5935 126.449 55.1293C127.439 64.7341 132.559 80.633 122.111 84.7157C117.498 85.9588 114.736 82.8837 111.791 86.6Z" fill="#3D742E"/>
<path d="M133.355 103.244C133.276 103.244 133.212 103.179 133.212 103.088C133.212 96.2572 126.945 90.6957 127.739 82.8444C123.947 87.9216 117.577 90.7874 117.876 97.7356C115.791 93.718 121.719 87.8955 125.029 84.8334C120.808 87.6599 115.114 83.5641 111.662 86.5215C114.202 82.8182 118.514 85.7363 122.071 84.5717C132.312 80.5806 127.335 64.8257 126.306 55.1556C123.4 42.8945 111.792 41.0756 111.636 41.0494C111.44 41.0232 111.492 40.7222 111.674 40.7615C122.319 42.2794 126.006 49.8036 127.218 53.6376C125.694 42.5804 125.082 16.2393 108.99 14.5512C116.886 13.1511 123.309 23.0699 123.844 25.2814C122.905 16.8543 126.475 7.21027 131.921 4.64551C125.967 9.25161 125.55 20.7406 125.954 27.689C127.257 21.4735 136.964 13.753 141.719 14.6952C126.162 18.7648 125.029 33.6299 127.882 46.5583C127.583 41.6513 141.276 33.7215 142.866 34.3888C139.765 36.391 134.657 38.6809 131.622 42.8683C125.276 50.4055 132.404 69.7197 130.293 78.4739C130.02 88.288 142.175 83.8781 144.038 91.5855C141.902 86.6262 131.544 87.6206 130.084 82.7135C127.218 89.8713 134.593 95.7862 133.355 103.244ZM127.948 81.9939C127.4 89.4395 131.544 94.0452 133.198 100.379C132.586 95.3936 126.892 87.1103 130.071 82.4126C131.113 86.6523 141.211 86.77 143.321 90.1462C139.478 84.8204 129.915 87.5945 129.993 78.487C131.947 64.0929 121.472 43.1954 140.182 35.5665C138.15 36.3517 135.296 37.7256 132.73 39.9371C127.7 44.046 128.456 47.8407 127.739 47.5267C125.42 38.1968 124.508 18.7648 139.895 15.1794C133.185 15.4017 126.527 25.3076 125.785 28.6705C125.485 25.8571 124.912 10.9789 129.589 6.92238C123.713 10.8088 124.091 23.5148 124.065 26.3413C123.635 26.2104 120.742 15.742 110.033 14.6036C126.684 16.2916 126.527 50.1569 127.752 55.9145C127.035 56.4771 126.619 45.5639 115.622 41.9915C126.397 44.5301 129.316 64.5639 128.364 74.2865C128.573 84.7026 122.241 85.6186 114.346 85.0298C118.149 84.6895 122.058 87.071 125.511 84.1792C125.615 85.7494 122.384 87.5421 121.211 88.9292C123.596 87.0449 126.606 84.4147 127.948 81.9939ZM118.684 92.7374C118.267 93.7448 117.993 94.7125 117.876 95.6425C118.046 94.7651 118.306 93.7448 118.684 92.7374Z" fill="#346227"/>
<g opacity="0.4">
<g opacity="0.4">
<path opacity="0.4" d="M127.892 25.0331C123.853 29.7046 127.515 54.2137 127.88 47.5008C125.144 35.6715 125.195 18.3595 141.547 14.7217C136.961 15.6115 130.564 18.5296 127.892 25.0331Z" fill="#3D742E"/>
</g>
<g opacity="0.4">
<path opacity="0.4" d="M111.828 40.9324C111.711 40.9063 111.646 40.9062 111.646 40.9062C111.711 40.9193 111.777 40.9324 111.828 40.9324Z" fill="#3D742E"/>
</g>
<g opacity="0.4">
<path opacity="0.4" d="M136.987 86.3906C125.182 82.3734 132.648 73.9201 129.574 61.0701C125.665 47.9193 132.805 37.9088 142.889 34.5459C117.822 44.5431 133.352 57.7072 128.218 68.7252C129.13 92.92 118.863 80.5414 111.789 86.6131C114.056 83.0669 121.73 87.9085 125.6 84.297C121.938 88.5889 116.883 91.7033 117.73 97.7357C117.404 90.1854 124.753 87.5159 127.945 82.1509C126.772 90.4995 133.378 96.1265 133.352 103.114C134.342 96.2444 126.368 88.0655 130.303 82.8575C130.433 86.5869 144.01 87.5029 143.892 91.6771C143.684 88.746 140.635 87.0842 136.987 86.3906Z" fill="#3D742E"/>
</g>
<g opacity="0.4">
<path opacity="0.4" d="M125.677 28.6971C126.055 21.9056 124.661 9.51375 131.997 4.76367C128.701 6.22925 124.61 12.9945 125.078 19.0137C125.078 26.6164 125.274 31.7853 125.677 28.6971Z" fill="#3D742E"/>
</g>
</g>
<path d="M119.203 91.4678C117.457 92.8288 114.304 94.7781 113.34 98.403C113.444 94.674 118.291 91.7033 119.659 90.4209L119.203 91.4678Z" fill="#EBD9B3"/>
<path d="M113.328 98.5466C113.354 96.0996 114.214 94.9485 115.621 93.6397C117.406 92.2922 119.621 89.7665 119.777 90.4601C118.435 93.3254 114.878 93.7051 113.328 98.5466ZM119.269 90.918C117.953 92.2268 114.644 94.2286 114.045 96.3355C115.712 93.1816 118.097 92.7503 119.269 90.918Z" fill="#BD7A43"/>
<path d="M115.425 93.9795C115.425 93.9795 112.038 95.197 109.9 98.3113C110.005 96.126 114.148 94.1896 115.425 93.9795Z" fill="#EBD9B3"/>
<path d="M109.888 98.4687C109.367 96.2447 114.357 93.7185 115.555 93.9415C115.529 94.242 112.077 95.394 109.888 98.4687ZM113.263 94.9489C112.129 95.4466 110.917 96.4143 110.331 97.5139C111.256 96.3756 112.337 95.5378 113.263 94.9489Z" fill="#BD7A43"/>
<path d="M112.286 95.2888C112.286 95.2888 109.237 95.5109 107.23 96.8464C108.142 95.4067 111.022 94.8574 112.286 95.2888Z" fill="#EBD9B3"/>
<path d="M107.244 96.9902C106.853 95.6031 112.013 94.1764 112.299 95.4326C112.26 95.4068 109.159 95.7469 107.244 96.9902ZM111.126 95.2888C110.11 95.3156 108.885 95.6289 108.051 96.2179C109.12 95.7211 110.293 95.4455 111.126 95.2888Z" fill="#BD7A43"/>
<path d="M124.899 86.0107C122.385 88.5624 128.247 96.8588 127.14 100.3C127.466 97.526 124.86 93.7445 124.417 92.0824C124.417 92.0824 123.349 94.385 123.01 96.4394C122.867 94.726 123.74 92.6717 123.74 92.6717C123.74 92.6717 120.234 96.832 119.505 99.7638C119.062 98.1933 121.16 94.726 123.597 92.279C124.325 91.4935 123.205 87.1361 124.899 86.0107Z" fill="#EBD9B3"/>
<path d="M127.139 100.445C126.917 97.4483 125.432 94.7395 124.377 92.5147C123.947 93.1819 123.53 95.3018 122.996 96.5847C122.514 95.734 123.153 94.1764 123.296 93.4437C122.045 94.5036 120.325 98.5469 119.348 99.8031C118.879 98.1285 121.119 94.5432 123.478 92.1746C124.13 90.7352 123.153 86.8488 124.82 85.8936C122.944 91.2717 128.624 95.6419 127.139 100.445ZM124.455 86.7702C123.661 88.0526 124.416 91.2586 123.699 92.3838C121.537 94.5561 119.895 97.252 119.621 98.887C121.107 95.616 125.237 89.3743 123.283 94.6612C123.895 93.1036 124.117 91.6381 124.559 92.0699C124.742 93.1561 127.087 96.7156 127.178 98.7174C126.983 95.1976 122.944 90.094 124.455 86.7702Z" fill="#BD7A43"/>
<path d="M126.2 95.9558C126.2 95.9558 124.102 98.2461 124.246 102.381C123.633 100.313 124.428 97.0424 125.874 95.2627L126.2 95.9558Z" fill="#EBD9B3"/>
<path d="M124.246 102.525C122.917 101.831 125.366 92.7762 126.317 96.061C126.135 95.9043 124.389 99.0186 124.246 102.525ZM125.848 95.5375C124.91 96.8066 124.285 98.7301 124.206 100.419C124.571 97.8278 125.744 96.296 126.043 95.943L125.848 95.5375Z" fill="#BD7A43"/>
<path d="M130.357 93.3783C130.357 93.3783 128.807 97.958 129.732 101.675C128.663 98.887 129.094 95.1193 129.875 92.3838C130.319 93.1165 130.357 93.3783 130.357 93.3783Z" fill="#EBD9B3"/>
<path d="M129.732 101.819C128.025 99.1485 129.459 89.5966 130.501 93.4177C130.253 93.378 129.289 98.6121 129.732 101.819ZM129.928 92.7504C129.615 93.9412 129.068 96.4923 129.289 99.0186C129.289 96.2702 130.084 93.7181 130.202 93.3651C130.189 93.2997 130.123 93.1163 129.928 92.7504Z" fill="#BD7A43"/>
<path d="M132.911 98.0884C132.911 98.0884 134.93 100.039 135.673 104.004C135.517 101.164 134.774 98.9133 132.65 97.0811C132.95 97.8267 132.911 98.0884 132.911 98.0884Z" fill="#EBD9B3"/>
<path d="M135.673 104.147C134.682 100.353 132.976 98.3241 132.768 98.0624C132.011 94.3849 136.885 102.262 135.673 104.147ZM133.054 98.0366C133.302 98.2983 134.461 99.5674 135.269 101.922C134.904 100.117 134.174 98.7425 132.976 97.5785C133.041 97.8006 133.054 97.9444 133.054 98.0366Z" fill="#BD7A43"/>
<path d="M119.881 85.7361C118.852 86.338 115.96 91.0226 114.109 90.6432C117.014 89.1384 117.705 86.6259 119.099 85.3828L119.881 85.7361Z" fill="#EBD9B3"/>
<path d="M114.109 90.7867C115.008 89.3474 117.471 88.2744 117.731 86.8873C118.864 85.0553 118.813 85.0422 119.92 85.5918C120.115 85.6311 120.025 85.9321 119.842 85.8797C118.826 86.5339 116.793 90.6428 114.109 90.7867ZM119.112 85.5395C117.823 86.8088 117.145 89.0595 114.773 90.3549C116.532 89.8708 118.265 87.0182 119.542 85.7227L119.112 85.5395Z" fill="#BD7A43"/>
<path d="M117.367 88.6016C117.367 88.6016 116.689 91.0355 115.479 92.043C116.794 91.3887 117.641 89.5437 117.85 87.9473C117.615 88.366 117.367 88.6016 117.367 88.6016Z" fill="#EBD9B3"/>
<path d="M115.476 92.1871C115.346 92.1871 115.282 92.004 115.386 91.9255C116.545 90.9572 117.223 88.5888 117.223 88.5626C119.125 86.1679 116.858 92.2793 115.476 92.1871ZM117.497 88.6804C117.431 88.8897 117.119 89.9366 116.571 90.8918C117.053 90.2375 117.392 89.387 117.588 88.5757C117.548 88.628 117.522 88.6542 117.497 88.6804Z" fill="#BD7A43"/>
<path d="M114.566 85.0949C114.71 87.6597 109.107 90.2506 108.533 91.7031C110.37 89.4655 113.706 90.0413 115.035 85.0557L114.566 85.0949Z" fill="#EBD9B3"/>
<path d="M108.533 91.8469C108.13 91.5722 108.872 90.4468 111.361 89.1121C113.863 87.8951 114.279 85.0032 114.553 84.9509C114.683 84.9771 115.257 84.7807 115.178 85.0949C113.849 90.0542 110.54 89.6224 108.533 91.8469ZM114.683 85.2388C114.956 86.508 111.413 89.7664 109.576 90.63C111.725 88.9027 113.458 89.557 114.839 85.2257L114.683 85.2388Z" fill="#BD7A43"/>
<path d="M112.807 88.7328C112.807 88.7328 112.911 90.0152 111.855 91.1536C110.762 92.3963 110.762 92.9465 110.762 92.9465C110.762 92.9465 113.133 91.0751 113.328 88.3271L112.807 88.7328Z" fill="#EBD9B3"/>
<path d="M110.761 93.1029C110.423 92.8679 110.631 92.4752 111.752 91.0616C112.872 89.8316 112.559 88.8109 112.715 88.6278C112.846 88.5754 113.406 87.895 113.458 88.3529C113.223 91.1794 110.995 93.0246 110.761 93.1029ZM112.963 88.7978C113.341 89.3212 111.673 91.7421 111.113 92.4356C111.752 91.7944 112.911 90.4205 113.146 88.654L112.963 88.7978Z" fill="#BD7A43"/>
<path d="M114.343 85.0685C114.343 85.0685 111.347 83.8515 109.08 84.9245C110.395 83.9692 113.132 84.0739 114.852 84.8853L114.343 85.0685Z" fill="#EBD9B3"/>
<path d="M114.345 85.2123C114.006 84.7674 110.059 84.4664 108.951 84.9898C109.003 83.4981 116.729 84.2047 114.345 85.2123ZM112.312 84.401C113.341 84.5318 114.137 84.8197 114.345 84.8982L114.449 84.8589C113.824 84.6104 113.068 84.4533 112.312 84.401Z" fill="#BD7A43"/>
<path d="M129.77 89.5576C130.852 91.5989 136.037 93.3784 137.041 96.9507C136.324 92.4493 130.826 91.9915 129.562 88.5762C129.719 89.4137 129.77 89.5576 129.77 89.5576Z" fill="#EBD9B3"/>
<path d="M137.041 97.0936C135.791 93.0374 129.901 91.9775 129.42 88.6014C129.38 88.4182 129.654 88.366 129.706 88.536C130.031 89.8707 132.521 91.5588 133.719 92.3572C135.139 93.3517 137.184 94.6337 137.041 97.0936ZM131.1 90.7867C132.585 92.1996 134.579 92.9849 135.947 94.6604C134.749 93.0374 132.534 92.1214 131.1 90.7867Z" fill="#BD7A43"/>
<path d="M131.45 91.036C131.45 91.036 134.017 90.9443 135.554 91.6379C134.551 90.9182 133.249 90.4471 131.111 90.5649C131.333 90.8005 131.359 91.0098 131.45 91.036Z" fill="#EBD9B3"/>
<path d="M135.541 91.7943C134.148 91.2054 132.376 91.1792 131.399 91.1792C129.613 89.4389 136.284 90.8914 135.541 91.7943ZM131.724 90.8914C132.232 90.8914 133.249 90.9176 134.226 91.1138C133.418 90.8129 132.506 90.682 131.386 90.7213C131.425 90.7867 131.45 90.839 131.489 90.9045C131.542 90.8914 131.619 90.8914 131.724 90.8914Z" fill="#BD7A43"/>
<path d="M133.367 85.8535C135.126 86.5602 140.116 94.8567 142.891 94.712C138.227 92.6577 138.188 86.7956 133.367 85.8535Z" fill="#EBD9B3"/>
<path d="M142.799 94.8569C139.867 94.608 134.838 86.8351 133.262 85.749C136.011 85.8405 137.73 88.7194 138.942 90.957C139.164 92.2393 142.604 93.7831 142.799 94.8569ZM134.043 86.2463C136.714 88.1568 139.073 93.1555 142.16 94.4246C138.082 92.396 138.095 87.3585 134.043 86.2463Z" fill="#BD7A43"/>
<path d="M139.959 92.5271C139.959 92.5271 144.493 93.5741 146.851 96.4009C145.443 94.1898 142.656 92.2792 139.594 92.0303L139.959 92.5271Z" fill="#EBD9B3"/>
<path d="M146.838 96.5449C144.467 93.8361 139.998 92.672 139.828 92.6195C138.213 89.9891 147.802 94.9882 146.838 96.5449ZM140.037 92.3965C140.441 92.5015 143.112 93.2085 145.314 94.8048C143.829 93.4177 141.861 92.4619 139.907 92.214L140.037 92.3965Z" fill="#BD7A43"/>
<path d="M142.683 88.9033C142.683 88.9033 147.308 89.3875 149.497 91.7952C147.348 89.2959 143.842 88.2229 142.045 88.4192L142.683 88.9033Z" fill="#EBD9B3"/>
<path d="M149.509 91.9389C147.32 89.6489 142.76 89.047 142.603 89.0208C139.933 86.7177 149.809 89.819 149.509 91.9389ZM142.746 88.759C143.072 88.7983 145.027 89.047 146.916 89.8713C145.366 88.9815 143.698 88.5235 142.447 88.5366L142.746 88.759Z" fill="#BD7A43"/>
<path d="M134.305 86.7568C134.957 87.856 138.383 95.6415 139.074 97.1733C139.269 98.6904 139.699 101.19 141.067 102.263C139.191 98.7558 139.543 95.2489 137.262 92.2397C136.155 89.7534 136.233 88 134.305 86.7568Z" fill="#EBD9B3"/>
<path d="M141.081 102.407C139.439 101.32 139.074 98.1536 138.944 97.1858C137.954 94.8697 134.749 88.1435 134.215 86.6387C136.3 87.3715 136.443 90.2372 137.42 92.1739C138.253 94.2282 139.036 93.9794 139.478 96.6494C139.569 99.4236 140.807 100.404 141.081 102.407ZM134.84 87.3584C137.015 91.8598 138.827 96.5573 140.56 101.491C139.257 99.619 139.531 95.7333 138.097 93.9794C136.625 92.2651 136.443 88.8501 134.84 87.3584Z" fill="#BD7A43"/>
<path d="M139.124 96.1923C139.124 96.1923 141.469 97.9066 142.967 100.052C141.9 97.3563 139.02 95.3545 139.02 95.3545L139.124 96.1923Z" fill="#EBD9B3"/>
<path d="M142.982 100.208C141.406 98.1676 139.073 96.3483 138.995 96.2174C137.874 93.4561 142.761 97.7879 142.982 100.208ZM139.269 96.1132C139.543 96.3225 140.885 97.3556 142.122 98.7427C141.145 97.2515 139.79 96.1262 139.217 95.681L139.269 96.1132Z" fill="#BD7A43"/>
<path d="M134.356 93.208C134.356 93.208 134.447 95.7066 135.385 97.8007C134.173 96.0338 133.926 93.0117 133.926 93.0117L134.356 93.208Z" fill="#EBD9B3"/>
<path d="M135.372 97.958C134.07 96.2705 133.001 91.7297 134.499 93.2087C134.226 93.1037 135.177 96.3617 135.372 97.958ZM134.083 93.2474C134.122 93.6401 134.239 94.4253 134.474 95.2889C134.291 94.3341 134.226 93.5617 134.213 93.3L134.083 93.2474Z" fill="#BD7A43"/>
<path d="M138.969 86.8091C139.829 85.9715 144.468 84.5322 145.627 84.9378C144.116 83.5376 138.891 86.1286 138.07 86.6258L138.969 86.8091Z" fill="#EBD9B3"/>
<path d="M138.971 86.9534C135.271 86.7703 144.912 83.0932 145.785 84.9252C144.078 85.0037 140.143 85.9066 138.971 86.9534ZM138.476 86.5478L138.931 86.6525C140.117 85.8019 142.945 84.7681 144.795 84.7681C143.062 84.2316 139.844 85.9197 138.476 86.5478Z" fill="#BD7A43"/>
<path d="M144.024 84.9639C144.024 84.9639 146.2 87.7381 149.509 87.581C147.333 87.9735 145.496 87.0707 143.516 85.0424C143.906 84.9639 144.024 84.9639 144.024 84.9639Z" fill="#EBD9B3"/>
<path d="M148.545 87.8163C148.076 88.4837 141.614 85.0029 144.141 84.8721C144.167 84.8982 146.317 87.6069 149.509 87.4368C150.043 87.8294 148.792 87.8163 148.545 87.8163ZM143.815 85.1337C144.792 86.1021 145.705 86.7563 146.603 87.1358C145.131 86.4554 144.18 85.3955 143.959 85.1206C143.932 85.1206 143.88 85.1206 143.815 85.1337Z" fill="#BD7A43"/>
<path d="M136.989 86.3901C128.728 84.9245 130.201 76.7068 130.357 69.6406C129.654 69.8239 128.872 69.9024 128.246 69.6537C128.859 92.7103 118.553 80.5932 111.791 86.6125C114.058 83.0663 121.732 87.908 125.602 84.2964C121.94 88.5885 116.885 91.7028 117.732 97.7352C117.406 90.1849 124.755 87.5155 127.947 82.1504C126.774 90.499 133.38 96.126 133.354 103.113C134.344 96.243 126.37 88.065 130.305 82.857C130.435 86.5863 144.012 87.5024 143.894 91.6767C143.686 88.7455 140.637 87.0836 136.989 86.3901Z" fill="#EBD9B3"/>
<path d="M133.353 103.244C133.274 103.244 133.21 103.179 133.21 103.088C133.21 96.2572 126.942 90.6956 127.737 82.8443C123.946 87.9214 117.574 90.7872 117.874 97.7355C115.789 93.718 121.717 87.8953 125.027 84.8333C121.561 87.6597 114.278 83.42 111.711 86.7175C116.584 80.502 127.412 91.2583 128.076 74.2602C128.219 72.8208 128.037 71.1327 128.167 69.5232C128.767 69.6018 129.405 69.7849 130.329 69.4971C130.955 72.6114 130.148 75.4641 130.291 78.4868C129.821 88.3271 142.89 83.9303 143.92 91.7948C143.085 87.0709 130.734 87.1625 130.069 82.7265C127.216 89.8712 134.59 95.7862 133.353 103.244ZM127.945 81.9938C127.399 89.4394 131.541 94.0452 133.197 100.379C132.584 95.3936 126.89 87.1102 130.069 82.4125C131.112 86.6522 141.209 86.7699 143.32 90.146C142.173 87.8821 138.981 86.9138 136.961 86.5344C128.949 85.4745 129.861 76.3669 130.212 69.8242C129.509 69.9812 128.897 69.9943 128.402 69.8503C129.144 81.7843 125.822 86.3512 114.343 85.0164C118.148 84.6762 122.056 87.0578 125.509 84.1659C125.613 85.7361 122.382 87.5289 121.209 88.916C123.594 87.0447 126.603 84.4145 127.945 81.9938ZM118.682 92.7373C118.264 93.7447 117.991 94.7125 117.874 95.6415C118.044 94.765 118.304 93.7447 118.682 92.7373Z" fill="#BD7A43"/>
<g opacity="0.4">
<path opacity="0.4" d="M125.603 84.2835C125.342 84.6761 125.055 85.0556 124.743 85.4089C125.446 84.7023 126.085 83.9172 126.736 83.1582C122.566 87.6334 115.466 82.1376 111.805 86.5997C114.058 83.0535 121.732 87.8952 125.603 84.2835Z" fill="#CB9049"/>
</g>
<g opacity="0.4">
<path opacity="0.4" d="M136.988 86.3901C128.727 84.9245 130.199 76.7068 130.356 69.6406C130.082 69.7061 129.796 69.7584 129.509 69.7846C129.561 75.7909 128.975 81.7578 128.754 87.6986C129.053 92.7886 133.692 98.5591 133.34 103.1C134.33 96.2301 126.356 88.052 130.291 82.8439C130.421 86.5733 143.997 87.4893 143.88 91.6636C143.685 88.7455 140.636 87.0836 136.988 86.3901Z" fill="#CB9049"/>
</g>
<path d="M128.832 70.8711C128.155 74.7445 128.976 79.7431 125.719 82.792C128.924 80.9339 128.872 74.679 128.832 70.8711Z" fill="#EBD9B3"/>
<path d="M127.334 54.1348C127.843 56.9743 128.116 60.1279 128.234 63.0722C128.65 60.5466 128.038 56.8173 127.334 54.1348Z" fill="#346227"/>
<g opacity="0.4">
<path opacity="0.4" d="M146.54 32.792C141.498 33.6163 131.661 30.7506 130.801 37.4112C134.292 30.3188 141.563 34.9249 146.54 32.792Z" fill="#86B133"/>
</g>
<g opacity="0.4">
<path opacity="0.4" d="M142.917 13.1513C138.696 13.0074 131.53 12.2615 129.562 16.2525C132.924 12.3269 138.696 13.7271 142.917 13.1513Z" fill="#86B133"/>
</g>
<g opacity="0.4">
<path opacity="0.4" d="M122.279 42.2135C120.129 39.1384 116.429 38.1831 113.055 39.073C116.482 38.615 120.208 39.6357 122.084 42.449C122.162 42.5276 122.344 42.292 122.279 42.2135Z" fill="#86B133"/>
</g>
<g opacity="0.4">
<path opacity="0.4" d="M120.116 16.0296C118.162 12.8236 114.539 11.6328 111.1 12.3264C114.565 12.0909 118.188 13.3209 119.895 16.2651C119.972 16.3436 120.168 16.1212 120.116 16.0296Z" fill="#86B133"/>
</g>
<g opacity="0.5">
<path opacity="0.5" d="M131.959 3.87305C130.474 4.7367 126.918 5.71811 126.943 7.2622C128.09 5.43023 130.514 5.05074 131.959 3.87305Z" fill="#A2C629"/>
</g>
<g opacity="0.4">
<path opacity="0.4" d="M125.444 50.903C127.008 55.1951 127.398 56.0457 127.92 61.149C128.038 63.5175 128.441 62.4706 128.207 59.9451C127.204 53.0229 126.318 46.8465 116.91 42.332C119.594 43.8369 123.672 46.7026 125.444 50.903Z" fill="#3D742E"/>
</g>
<g opacity="0.4">
<path opacity="0.4" d="M111.828 40.9315C111.711 40.9053 111.646 40.9053 111.646 40.9053C111.711 40.9184 111.777 40.9315 111.828 40.9315Z" fill="#3D742E"/>
<path opacity="0.4" d="M111.829 41.0883C111.816 41.0883 111.738 41.0752 111.725 41.0752C111.426 41.1014 111.464 40.6826 111.751 40.7874C111.972 40.7481 112.077 41.049 111.829 41.0883Z" fill="#346227"/>
</g>
<g opacity="0.4">
<path opacity="0.4" d="M122.227 23.7499C124.077 28.7485 124.377 28.6701 123.999 26.1184C123.661 25.1239 120.026 15.1004 109.459 14.4199C112.69 15.0219 119.374 17.0501 122.227 23.7499Z" fill="#3D742E"/>
</g>
<path d="M111.828 40.9315C111.711 40.9053 111.646 40.9053 111.646 40.9053C111.711 40.9184 111.777 40.9315 111.828 40.9315Z" fill="#3D742E"/>
<path d="M111.829 41.0883C111.816 41.0883 111.738 41.0752 111.725 41.0752C111.426 41.1014 111.464 40.6826 111.751 40.7874C111.972 40.7481 112.077 41.049 111.829 41.0883Z" fill="#346227"/>
<path d="M125.614 12.3262C124.441 15.4143 124.441 18.9081 124.519 22.1664C124.975 19.2353 124.675 15.3358 125.614 12.3262Z" fill="#3D742E"/>
<path d="M121.015 22.0747C120.233 20.6352 118.957 19.4706 117.758 18.4893C118.891 19.68 120.063 20.753 120.884 22.1925C121.757 23.4487 122.305 25.6078 122.995 26.5892C122.566 25.0189 121.783 23.5271 121.015 22.0747Z" fill="#3D742E"/>
<path d="M124.637 32.792C125.027 36.2596 125.575 40.0936 126.135 43.6529C126.331 40.4078 125.04 36.2989 124.637 32.792Z" fill="#3D742E"/>
<path d="M135.048 38.0791C133.146 39.3746 130.553 41.4945 129.875 43.3264C131.244 41.2458 133.146 39.5185 135.048 38.0791Z" fill="#3D742E"/>
</g>
<defs>
<filter id="filter0_d" x="290.389" y="58.0645" width="306.002" height="146.249" filterUnits="userSpaceOnUse" color-interpolation-filters="sRGB">
<feFlood flood-opacity="0" result="BackgroundImageFix"/>
<feColorMatrix in="SourceAlpha" type="matrix" values="0 0 0 0 0 0 0 0 0 0 0 0 0 0 0 0 0 0 127 0"/>
<feOffset dy="4"/>
<feGaussianBlur stdDeviation="2"/>
<feColorMatrix type="matrix" values="0 0 0 0 0 0 0 0 0 0 0 0 0 0 0 0 0 0 0.25 0"/>
<feBlend mode="normal" in2="BackgroundImageFix" result="effect1_dropShadow"/>
<feBlend mode="normal" in="SourceGraphic" in2="effect1_dropShadow" result="shape"/>
</filter>
<filter id="filter1_d" x="1.57031" y="61.6543" width="299.206" height="110.83" filterUnits="userSpaceOnUse" color-interpolation-filters="sRGB">
<feFlood flood-opacity="0" result="BackgroundImageFix"/>
<feColorMatrix in="SourceAlpha" type="matrix" values="0 0 0 0 0 0 0 0 0 0 0 0 0 0 0 0 0 0 127 0"/>
<feOffset dy="4"/>
<feGaussianBlur stdDeviation="2"/>
<feColorMatrix type="matrix" values="0 0 0 0 0 0 0 0 0 0 0 0 0 0 0 0 0 0 0.25 0"/>
<feBlend mode="normal" in2="BackgroundImageFix" result="effect1_dropShadow"/>
<feBlend mode="normal" in="SourceGraphic" in2="effect1_dropShadow" result="shape"/>
</filter>
<clipPath id="clip0">
<rect width="593" height="200" fill="white"/>
</clipPath>
</defs>
</svg>
